<svg width="241" height="37" viewBox="0 0 241 37" fill="none" xmlns="http://www.w3.org/2000/svg">
<path d="M33.5637 9.33348L47.0721 12.8334L26.9359 4.25055L18.414 0.617655C12.8268 -1.76081 5.4245 2.92832 1.87351 11.0939C-1.67747 19.2594 -0.0284215 27.8109 5.55358 30.1894L9.5076 31.8742C6.83646 28.0822 6.4703 21.6874 9.14407 15.5404C11.752 9.54473 16.354 5.38502 20.6505 4.47223C16.9362 6.02658 13.2746 9.84465 11.0328 15.0006C7.48185 23.1661 8.8464 31.5925 14.0807 33.8223C14.842 34.1483 15.6428 34.323 16.4647 34.3595C16.6965 34.37 16.9336 34.37 17.1707 34.3595C17.1707 34.3595 17.1733 34.3595 17.1759 34.3595L41.4665 33.8223L33.5637 32.4975L47.0721 31.4699L25.0629 30.3772C26.6961 28.7759 28.1819 26.7495 29.3699 24.3945L32.5495 25.0282L29.6676 23.7764L29.1908 23.5678L28.7456 23.3748L29.8283 23.4348C29.881 23.3174 29.9336 23.1974 29.9863 23.0749C31.1823 20.3235 31.8224 17.546 31.941 14.9797L37.2911 15.9369L31.9594 13.7618L30.9083 13.3341L31.3456 13.3263L31.9462 13.3159C31.9067 12.4317 31.804 11.5816 31.6354 10.7783L43.5449 13.4489L33.5637 9.33348ZM10.0582 3.1865C4.50251 7.79478 0.87513 16.6332 1.38618 23.7764C-0.834505 16.8288 3.20645 7.41402 9.02026 3.22823C10.1767 2.3989 11.5044 1.72343 12.8979 1.43395C11.8547 1.88774 10.9169 2.49278 10.0582 3.18911V3.1865ZM23.7747 13.7253C22.9423 14.4268 22.1916 14.1087 22.1362 13.0264L21.9255 9.10659C21.9966 9.0779 22.073 9.04922 22.1441 9.02314C22.2416 8.98923 22.3391 8.95794 22.4365 8.93186C22.4761 8.92142 22.5182 8.90839 22.5577 8.90056C22.6157 8.88491 22.6736 8.86927 22.7342 8.85623C22.8001 8.84319 22.8659 8.83275 22.9344 8.81971C22.9687 8.81189 23.0029 8.80667 23.0372 8.80146C23.1162 8.78842 23.1952 8.7806 23.2742 8.77538C23.3006 8.77538 23.3296 8.76756 23.3559 8.76756C23.427 8.76234 23.5008 8.76234 23.5719 8.76234C23.6035 8.76234 23.6378 8.76234 23.6694 8.76234C23.7273 8.76234 23.7853 8.77016 23.8432 8.77016C23.888 8.77538 23.9328 8.77799 23.9776 8.78059C24.0171 8.78581 24.0593 8.79103 24.0988 8.79885C24.1567 8.80667 24.2173 8.81711 24.2779 8.82754C24.3042 8.83536 24.3306 8.84058 24.3569 8.8484C24.4254 8.86405 24.4965 8.88231 24.565 8.90317C24.5887 8.91099 24.6072 8.91882 24.6283 8.92664C24.6967 8.95011 24.7679 8.97619 24.8364 9.00488C24.8627 9.01531 24.889 9.02835 24.9154 9.04139C24.9733 9.06747 25.0313 9.09616 25.0892 9.12485C25.1288 9.14571 25.1656 9.16657 25.2052 9.19005C25.2447 9.21352 25.2868 9.23699 25.3237 9.26307C25.3764 9.29697 25.4264 9.33088 25.4765 9.37C25.5002 9.38564 25.5186 9.40129 25.5397 9.41694C25.6056 9.4691 25.6688 9.52126 25.7294 9.57863C25.7346 9.58385 25.7399 9.58646 25.7452 9.59167C26.1798 9.99591 26.5328 10.5358 26.7936 11.1877L23.7774 13.7305L23.7747 13.7253ZM27.2941 13.4489C27.3626 14.2991 27.3363 15.2275 27.2072 16.2107C27.2072 16.2211 27.2072 16.2342 27.2019 16.2472C27.1835 16.3854 27.1624 16.5237 27.1413 16.6619C27.1334 16.7062 27.1255 16.7505 27.1176 16.7949C27.0992 16.9044 27.0781 17.014 27.0597 17.1261C27.0439 17.2043 27.0281 17.2852 27.0123 17.3634C26.9938 17.4443 26.978 17.5225 26.9622 17.6007C26.9385 17.7129 26.9095 17.825 26.8832 17.9372C26.87 17.9919 26.8595 18.0441 26.8437 18.0989C26.812 18.2267 26.7778 18.3544 26.7436 18.4822C26.7304 18.5266 26.7199 18.5683 26.7067 18.6126C26.6724 18.7352 26.6356 18.8552 26.6013 18.9751C26.5855 19.0299 26.5697 19.0847 26.5513 19.1368C26.5223 19.2359 26.488 19.3376 26.4564 19.4368C26.4327 19.515 26.4064 19.5906 26.38 19.6663C26.3563 19.7393 26.33 19.8123 26.3036 19.8853C26.2668 19.987 26.2325 20.0914 26.193 20.1931C26.1746 20.2452 26.1535 20.2948 26.1377 20.3443C26.0903 20.4695 26.0428 20.5921 25.9928 20.7147C25.977 20.7538 25.9586 20.7955 25.9427 20.8372C25.8874 20.965 25.8374 21.0928 25.7794 21.2232C25.7557 21.2728 25.7346 21.3223 25.7136 21.3719C25.6635 21.484 25.6135 21.5961 25.5608 21.7083C25.5265 21.7813 25.4923 21.8543 25.4554 21.93C25.4159 22.0108 25.379 22.0917 25.3395 22.1699C25.2868 22.2742 25.2341 22.3785 25.1814 22.4829C25.1577 22.5272 25.134 22.5715 25.1103 22.6133C25.0629 22.7045 25.0129 22.7932 24.9654 22.8819L23.6826 20.0627C23.3296 19.2829 23.6826 17.8329 24.4649 16.8836L27.2836 13.4462L27.2941 13.4489ZM18.9646 21.7083C19.1068 21.3849 19.3597 21.1789 19.531 21.2545C19.7022 21.3275 19.7259 21.6483 19.5863 21.9743C19.444 22.2977 19.1911 22.5037 19.0199 22.4281C18.8487 22.3551 18.825 22.0343 18.9646 21.7083ZM18.5642 19.8853C18.3561 19.9166 18.256 19.6741 18.3376 19.3403C18.4219 19.009 18.6537 18.717 18.8592 18.6857C19.0673 18.6544 19.1674 18.8969 19.0858 19.2307C19.0015 19.5619 18.7697 19.854 18.5642 19.8853ZM19.336 14.6955C19.1727 15.9082 18.3561 17.1626 17.5421 17.4417L14.5891 18.4588C14.6023 18.4223 14.6128 18.3857 14.626 18.3492C14.6365 18.3153 14.6497 18.284 14.6602 18.2501C14.8314 17.7572 15.0237 17.2617 15.2397 16.7662C15.6085 15.9134 16.0248 15.1127 16.4752 14.3669C16.4831 14.3486 16.4963 14.333 16.5042 14.3147C16.578 14.1921 16.6543 14.0722 16.7307 13.9522C16.7544 13.9157 16.7755 13.8818 16.7992 13.8453C16.8651 13.7462 16.9309 13.6445 16.9968 13.5454C17.031 13.4958 17.0653 13.4462 17.0969 13.3967C17.1575 13.3132 17.2154 13.2246 17.276 13.1411C17.3155 13.0863 17.3551 13.0316 17.3946 12.9794C17.4552 12.896 17.5157 12.8151 17.579 12.7343C17.6159 12.6847 17.6501 12.6378 17.6896 12.5882C17.7607 12.4969 17.8319 12.4083 17.903 12.3196C17.9267 12.2909 17.9504 12.2622 17.9741 12.2335C18.5984 11.4798 19.2544 10.8278 19.9156 10.3036L19.3334 14.6955H19.336ZM13.8515 21.4657L16.5095 21.6353C17.2444 21.6822 17.4841 22.7776 17.0389 24.032L15.4241 28.5855C15.3425 28.5177 15.2635 28.4525 15.1897 28.3769C15.1818 28.369 15.1739 28.3612 15.166 28.3534C15.1028 28.2908 15.0422 28.2256 14.9842 28.1604C14.9684 28.1421 14.9552 28.1239 14.9421 28.1056C14.8868 28.043 14.8341 27.9778 14.784 27.91C14.7682 27.8866 14.7524 27.8605 14.7366 27.837C14.6655 27.7353 14.5944 27.6258 14.5311 27.5136C14.4969 27.4563 14.4626 27.3989 14.431 27.3363C14.4047 27.2841 14.3757 27.232 14.352 27.1772C14.3257 27.1198 14.2967 27.0625 14.2703 26.9999C14.2387 26.9294 14.2098 26.8538 14.1808 26.7782C14.1729 26.7573 14.165 26.7365 14.1571 26.713C13.6434 25.3308 13.5354 23.4948 13.8515 21.4631V21.4657ZM19.2017 24.9526C19.8155 23.7712 20.7849 23.1922 21.3249 23.6877L23.2742 25.4794C23.1583 25.6281 23.0372 25.7767 22.916 25.9176C22.916 25.9228 22.9081 25.9254 22.9081 25.9306C22.8185 26.0375 22.7263 26.1418 22.6341 26.2462C22.6104 26.2722 22.5867 26.3009 22.563 26.327C22.4919 26.4052 22.4207 26.4835 22.3496 26.5591C22.3022 26.6087 22.2548 26.6582 22.2074 26.7052C22.1573 26.7547 22.1073 26.8043 22.0598 26.8538C21.9914 26.9242 21.9176 26.992 21.8491 27.0625L21.7674 27.1355C21.6752 27.2215 21.5804 27.3076 21.4882 27.3884C21.4803 27.3937 21.4777 27.3989 21.4698 27.4041C20.719 28.0587 19.9498 28.5568 19.199 28.8724C19.1885 28.8776 19.178 28.8802 19.1674 28.8854C19.0779 28.9245 18.9857 28.9558 18.8961 28.9897C18.8645 29.0002 18.8329 29.0132 18.8013 29.021C18.7301 29.0445 18.6617 29.068 18.5905 29.0888C18.5352 29.1045 18.4825 29.1175 18.4272 29.1306C18.3771 29.1436 18.3297 29.154 18.2823 29.1671C18.2086 29.1827 18.1348 29.1958 18.061 29.2088C18.0321 29.214 18.0031 29.2192 17.9741 29.2245C17.8213 29.2479 17.6712 29.2584 17.5263 29.2636H17.4446C17.3208 29.2636 17.2023 29.2584 17.0837 29.2505C17.0442 29.2453 17.01 29.2427 16.9731 29.2401L19.2017 24.9474V24.9526ZM22.2706 16.6488C22.484 16.4298 22.7026 16.4558 22.7579 16.7036C22.8132 16.954 22.6868 17.3347 22.4708 17.5564C22.2574 17.7755 22.0388 17.7494 21.9835 17.5016C21.9281 17.2539 22.0546 16.8731 22.2706 16.6514V16.6488ZM21.7516 20.7955C21.562 21.0798 21.3144 21.1763 21.1984 21.0068C21.0799 20.8372 21.1352 20.4669 21.3223 20.1826C21.5093 19.8958 21.7569 19.8019 21.8728 19.9714C21.9914 20.1409 21.9387 20.5112 21.7516 20.7955ZM21.1905 19.3064C20.8744 20.0288 20.3133 20.4825 19.9314 20.3209C19.552 20.1592 19.4993 19.442 19.8128 18.7196C20.1289 17.9972 20.69 17.5434 21.072 17.7051C21.4513 17.8668 21.504 18.5839 21.1905 19.3064ZM20.5952 16.9096C20.3739 17.04 20.2053 16.9018 20.2211 16.5941C20.2343 16.2889 20.424 15.9343 20.6453 15.8012C20.8692 15.6708 21.0351 15.8091 21.0219 16.1168C21.0088 16.4219 20.8165 16.7766 20.5952 16.9096ZM28.1028 22.3707C25.2289 28.9819 19.8813 33.0556 16.1617 31.4699C15.1634 31.0448 14.3836 30.2572 13.8357 29.201C13.8752 29.2558 13.9094 29.3053 13.949 29.3575C13.9674 29.3809 13.9832 29.3992 14.0016 29.4227C14.0649 29.5061 14.1334 29.5844 14.1966 29.66C14.2045 29.6678 14.2124 29.6756 14.2203 29.6835C14.8789 30.4059 15.6928 30.8466 16.6306 30.9796C16.6517 30.9848 16.6701 30.9874 16.686 30.9874C16.765 30.9979 16.8466 31.0057 16.9257 31.0109C16.9731 31.0161 17.0179 31.0187 17.0653 31.0213C17.1206 31.0213 17.1759 31.0213 17.2312 31.0213C17.3024 31.0213 17.3735 31.0213 17.442 31.0213C17.4815 31.0213 17.5263 31.0135 17.5658 31.0135C17.6501 31.0083 17.7318 31.0031 17.8161 30.9927C17.8266 30.9927 17.8398 30.9927 17.8477 30.9927C17.8793 30.9874 17.9109 30.9822 17.9425 30.977C18.0268 30.9666 18.1058 30.9535 18.1901 30.9379C18.2533 30.9275 18.3139 30.9144 18.3772 30.8988C18.4351 30.8857 18.4957 30.8727 18.5563 30.857C18.6432 30.8336 18.7328 30.8101 18.8197 30.784C18.8513 30.7762 18.8856 30.7632 18.9172 30.7553C19.0304 30.7188 19.1437 30.6797 19.257 30.638C19.2649 30.638 19.2702 30.6328 19.2781 30.6301C20.1843 30.2859 21.0904 29.7304 21.9676 29.008C21.9676 29.008 21.9676 29.008 21.9729 29.0028C22.0888 28.9063 22.2021 28.8098 22.3154 28.7081C22.3417 28.6846 22.3681 28.6611 22.3944 28.6377C22.4813 28.5568 22.5709 28.476 22.6578 28.3951C22.7131 28.343 22.7632 28.2934 22.8185 28.2413C22.8765 28.1839 22.9371 28.1239 22.9976 28.0639C23.0767 27.9831 23.1583 27.9022 23.2374 27.8188C23.269 27.7849 23.3006 27.751 23.3322 27.717C23.4349 27.6075 23.5377 27.4928 23.6404 27.378C23.6483 27.3702 23.6536 27.3598 23.6641 27.3519C24.4807 26.4209 25.2473 25.3386 25.9269 24.1311C25.9375 24.1128 25.948 24.0972 25.9559 24.0789C26.0376 23.9329 26.1166 23.7895 26.1956 23.6408C26.2246 23.586 26.251 23.5339 26.2799 23.4817C26.3379 23.367 26.3985 23.2522 26.4564 23.1349C26.5038 23.041 26.5486 22.9497 26.5908 22.8558C26.6303 22.7723 26.6698 22.6941 26.7067 22.6106C26.7673 22.4802 26.8252 22.3525 26.8832 22.2221C26.9016 22.1803 26.9227 22.1412 26.9385 22.0995C26.9438 22.0864 26.949 22.0734 26.9543 22.0604C27.0175 21.9143 27.0807 21.7631 27.1413 21.617C27.1571 21.5727 27.1782 21.531 27.194 21.4866C27.2493 21.3432 27.3073 21.2023 27.3573 21.0589C27.3784 21.0041 27.3995 20.9494 27.4179 20.8972C27.4627 20.7799 27.5022 20.6599 27.547 20.5347C27.5734 20.4565 27.6023 20.3782 27.6287 20.3C27.6603 20.2087 27.6866 20.1174 27.7156 20.0262C27.7498 19.9166 27.7867 19.8097 27.8157 19.7002C27.8368 19.6323 27.8552 19.5672 27.8737 19.502C27.9132 19.3689 27.9501 19.2359 27.9869 19.1055C28.0001 19.0508 28.0133 18.9908 28.0291 18.936C28.066 18.7952 28.1002 18.657 28.1318 18.5187C28.1371 18.5031 28.1397 18.4848 28.145 18.4692C28.1503 18.4457 28.1529 18.4223 28.1582 18.3988C28.2214 18.1223 28.2793 17.8485 28.3294 17.5773C28.3347 17.5486 28.3399 17.5199 28.3452 17.4912C28.39 17.2382 28.4295 16.9905 28.4611 16.7453C28.4743 16.6488 28.4848 16.5523 28.498 16.4611C28.5243 16.2472 28.5454 16.0334 28.5638 15.8221C28.5717 15.6969 28.5796 15.5744 28.5875 15.4518C28.5954 15.3396 28.5981 15.2301 28.6033 15.1206C28.6112 14.9093 28.6113 14.7033 28.6113 14.4973C28.6113 14.4008 28.6112 14.3043 28.606 14.213C28.606 14.0826 28.5981 13.9548 28.5902 13.827C28.5823 13.6888 28.5691 13.5506 28.5586 13.415C28.5454 13.2819 28.5296 13.1463 28.5138 13.0185C28.4953 12.8855 28.4769 12.7525 28.4558 12.6247C28.4453 12.5517 28.4321 12.4787 28.4189 12.4057C28.3794 12.2049 28.3347 12.0119 28.2872 11.8215C28.2767 11.7824 28.2662 11.7406 28.2556 11.7015C27.8473 10.1863 27.0939 9.00488 26.0112 8.33985C25.9796 8.31898 25.9506 8.30334 25.9217 8.28508C25.79 8.20945 25.6556 8.13904 25.516 8.07644C25.5055 8.07123 25.4949 8.06601 25.4844 8.0608C25.4686 8.05297 25.4475 8.04776 25.4317 8.03993C25.3053 7.98777 25.1788 7.94604 25.0497 7.90953C25.0049 7.89649 24.9575 7.88345 24.9101 7.87041C24.76 7.83129 24.6072 7.8 24.4518 7.77914C24.4412 7.77914 24.428 7.77914 24.4122 7.77392C24.2516 7.75306 24.0882 7.74523 23.9223 7.74262H23.838C23.6588 7.74262 23.4797 7.75306 23.3006 7.77653H23.2769C23.24 7.78174 23.2057 7.78696 23.1689 7.79478C23.0951 7.80521 23.0213 7.81565 22.9423 7.8313C22.8712 7.84434 22.7948 7.85998 22.721 7.87824C22.6789 7.88606 22.6341 7.89649 22.5893 7.90693C22.0045 8.05297 21.4118 8.2903 20.8165 8.6189C22.8132 7.26537 24.8627 6.80115 26.5697 7.53138C30.2919 9.11702 30.9768 15.7621 28.1002 22.3733L28.1028 22.3707Z" fill="#F57E00"/>
<path d="M71.8672 29C70.8132 29.2067 69.7798 29.2945 68.7672 29.2635C67.7545 29.2325 66.8503 29.0362 66.0547 28.6745C65.259 28.3128 64.6597 27.7445 64.2567 26.9695C63.895 26.2772 63.6987 25.5745 63.6677 24.8615C63.647 24.1382 63.6367 23.3218 63.6367 22.4125V7.61H66.8917V22.2575C66.8917 22.9292 66.8968 23.513 66.9072 24.009C66.9278 24.505 67.0363 24.9235 67.2327 25.2645C67.6047 25.9052 68.1937 26.272 68.9997 26.365C69.816 26.4477 70.7718 26.4115 71.8672 26.2565V29ZM60.4282 14.864V12.26H71.8672V14.864H60.4282ZM77.2055 36.44L80.445 27.6205L80.4915 30.2245L73.191 12.26H76.57L82.026 26.1325H81.034L86.242 12.26H89.528L80.29 36.44H77.2055ZM102.776 29C101.722 29.2067 100.689 29.2945 99.6763 29.2635C98.6637 29.2325 97.7595 29.0362 96.9638 28.6745C96.1682 28.3128 95.5688 27.7445 95.1658 26.9695C94.8042 26.2772 94.6078 25.5745 94.5768 24.8615C94.5562 24.1382 94.5458 23.3218 94.5458 22.4125V7.61H97.8008V22.2575C97.8008 22.9292 97.806 23.513 97.8163 24.009C97.837 24.505 97.9455 24.9235 98.1418 25.2645C98.5138 25.9052 99.1028 26.272 99.9088 26.365C100.725 26.4477 101.681 26.4115 102.776 26.2565V29ZM91.3373 14.864V12.26H102.776V14.864H91.3373Z" fill="white"/>
<path d="M106.29 29L106.306 6.68H109.592V20.32L116.164 12.26H120.287L113.343 20.63L121 29H116.598L109.592 20.94V29H106.29ZM129.529 29.465C127.855 29.465 126.404 29.0878 125.174 28.3335C123.944 27.5792 122.994 26.5407 122.322 25.218C121.661 23.885 121.33 22.3505 121.33 20.6145C121.33 18.8682 121.671 17.3337 122.353 16.011C123.035 14.678 123.991 13.6447 125.22 12.911C126.45 12.167 127.886 11.795 129.529 11.795C131.203 11.795 132.655 12.1722 133.885 12.9265C135.115 13.6808 136.065 14.7193 136.737 16.042C137.409 17.3647 137.744 18.8888 137.744 20.6145C137.744 22.3608 137.403 23.9005 136.721 25.2335C136.05 26.5562 135.099 27.5947 133.869 28.349C132.64 29.093 131.193 29.465 129.529 29.465ZM129.529 26.4115C131.131 26.4115 132.325 25.8742 133.11 24.7995C133.906 23.7145 134.303 22.3195 134.303 20.6145C134.303 18.8682 133.9 17.4732 133.094 16.4295C132.299 15.3755 131.11 14.8485 129.529 14.8485C128.444 14.8485 127.551 15.0965 126.848 15.5925C126.145 16.0782 125.623 16.755 125.282 17.623C124.941 18.4807 124.771 19.4778 124.771 20.6145C124.771 22.3712 125.174 23.7765 125.98 24.8305C126.786 25.8845 127.969 26.4115 129.529 26.4115ZM141.46 29V6.215H144.7V29H141.46ZM156.779 29.465C155.115 29.465 153.653 29.1033 152.393 28.38C151.142 27.6463 150.166 26.6285 149.463 25.3265C148.771 24.0142 148.425 22.4952 148.425 20.7695C148.425 18.9405 148.766 17.3543 149.448 16.011C150.14 14.6677 151.101 13.6292 152.331 12.8955C153.56 12.1618 154.991 11.795 156.624 11.795C158.329 11.795 159.781 12.1928 160.98 12.9885C162.178 13.7738 163.072 14.895 163.661 16.352C164.26 17.809 164.498 19.5398 164.374 21.5445H161.135V20.3665C161.114 18.4238 160.742 16.9875 160.019 16.0575C159.306 15.1275 158.215 14.6625 156.748 14.6625C155.126 14.6625 153.906 15.174 153.09 16.197C152.274 17.22 151.866 18.6977 151.866 20.63C151.866 22.4693 152.274 23.8953 153.09 24.908C153.906 25.9103 155.084 26.4115 156.624 26.4115C157.637 26.4115 158.51 26.1842 159.244 25.7295C159.988 25.2645 160.566 24.6032 160.98 23.7455L164.157 24.753C163.506 26.2513 162.519 27.4138 161.197 28.2405C159.874 29.0568 158.401 29.465 156.779 29.465ZM150.812 21.5445V19.018H162.762V21.5445H150.812ZM174.253 29.4495C172.217 29.4495 170.559 29 169.278 28.101C167.996 27.202 167.211 25.9362 166.922 24.3035L170.239 23.792C170.445 24.66 170.921 25.3472 171.665 25.8535C172.419 26.3495 173.354 26.5975 174.47 26.5975C175.483 26.5975 176.273 26.3908 176.842 25.9775C177.42 25.5642 177.71 24.9958 177.71 24.2725C177.71 23.8488 177.606 23.5078 177.4 23.2495C177.203 22.9808 176.785 22.7277 176.144 22.49C175.503 22.2523 174.527 21.9578 173.215 21.6065C171.778 21.2345 170.636 20.8367 169.789 20.413C168.952 19.979 168.353 19.4778 167.991 18.9095C167.64 18.3308 167.464 17.6333 167.464 16.817C167.464 15.8043 167.733 14.9208 168.27 14.1665C168.807 13.4122 169.562 12.8283 170.533 12.415C171.515 12.0017 172.662 11.795 173.974 11.795C175.255 11.795 176.397 11.9965 177.4 12.3995C178.402 12.8025 179.213 13.376 179.833 14.12C180.453 14.8537 180.825 15.7165 180.949 16.7085L177.632 17.313C177.518 16.507 177.141 15.8715 176.501 15.4065C175.86 14.9415 175.028 14.6883 174.005 14.647C173.023 14.6057 172.228 14.771 171.618 15.143C171.008 15.5047 170.704 16.0058 170.704 16.6465C170.704 17.0185 170.817 17.3337 171.045 17.592C171.282 17.8503 171.737 18.0983 172.409 18.336C173.08 18.5737 174.072 18.8578 175.385 19.1885C176.79 19.5502 177.906 19.9532 178.733 20.3975C179.559 20.8315 180.148 21.3533 180.5 21.963C180.861 22.5623 181.042 23.2908 181.042 24.1485C181.042 25.8018 180.438 27.0987 179.229 28.039C178.03 28.9793 176.371 29.4495 174.253 29.4495ZM189.199 29.465C187.959 29.465 186.921 29.2377 186.084 28.783C185.247 28.318 184.611 27.7083 184.177 26.954C183.754 26.1893 183.542 25.3523 183.542 24.443C183.542 23.5957 183.692 22.8517 183.991 22.211C184.291 21.5703 184.735 21.0278 185.324 20.5835C185.913 20.1288 186.637 19.762 187.494 19.483C188.238 19.266 189.08 19.0748 190.021 18.9095C190.961 18.7442 191.948 18.5892 192.981 18.4445C194.025 18.2998 195.058 18.1552 196.081 18.0105L194.903 18.6615C194.924 17.3492 194.645 16.3778 194.066 15.7475C193.498 15.1068 192.516 14.7865 191.121 14.7865C190.243 14.7865 189.437 14.9932 188.703 15.4065C187.97 15.8095 187.458 16.4812 187.169 17.4215L184.146 16.4915C184.56 15.0552 185.345 13.9133 186.502 13.066C187.67 12.2187 189.22 11.795 191.152 11.795C192.651 11.795 193.953 12.0533 195.058 12.57C196.174 13.0763 196.991 13.8823 197.507 14.988C197.776 15.5357 197.941 16.1143 198.003 16.724C198.065 17.3337 198.096 17.9898 198.096 18.6925V29H195.229V25.1715L195.787 25.6675C195.094 26.9488 194.211 27.9047 193.136 28.535C192.072 29.155 190.76 29.465 189.199 29.465ZM189.773 26.8145C190.692 26.8145 191.483 26.6543 192.144 26.334C192.806 26.0033 193.338 25.5848 193.741 25.0785C194.144 24.5722 194.407 24.0452 194.531 23.4975C194.707 23.0015 194.805 22.4435 194.826 21.8235C194.857 21.2035 194.872 20.7075 194.872 20.3355L195.926 20.723C194.903 20.878 193.973 21.0175 193.136 21.1415C192.299 21.2655 191.54 21.3895 190.858 21.5135C190.186 21.6272 189.587 21.7667 189.06 21.932C188.615 22.087 188.218 22.273 187.866 22.49C187.525 22.707 187.251 22.9705 187.045 23.2805C186.848 23.5905 186.75 23.9677 186.75 24.412C186.75 24.846 186.859 25.249 187.076 25.621C187.293 25.9827 187.623 26.272 188.068 26.489C188.512 26.706 189.08 26.8145 189.773 26.8145ZM202.679 29V25.5745H206.105V29H202.679ZM210.991 29V12.26H213.874V16.321L213.471 15.794C213.678 15.2567 213.947 14.7658 214.277 14.3215C214.608 13.8668 214.99 13.4948 215.424 13.2055C215.848 12.8955 216.318 12.6578 216.835 12.4925C217.362 12.3168 217.899 12.2135 218.447 12.1825C218.994 12.1412 219.521 12.167 220.028 12.26V15.298C219.48 15.1533 218.87 15.112 218.199 15.174C217.537 15.236 216.928 15.4478 216.37 15.8095C215.843 16.1505 215.424 16.5638 215.114 17.0495C214.815 17.5352 214.598 18.0777 214.463 18.677C214.329 19.266 214.262 19.8912 214.262 20.5525V29H210.991ZM229.288 29.4495C228.131 29.4495 227.159 29.2635 226.374 28.8915C225.589 28.5195 224.948 28.0338 224.452 27.4345C223.966 26.8248 223.594 26.1635 223.336 25.4505C223.078 24.7375 222.902 24.04 222.809 23.358C222.716 22.676 222.67 22.0767 222.67 21.56V12.26H225.956V20.4905C225.956 21.1415 226.007 21.8132 226.111 22.5055C226.224 23.1875 226.431 23.823 226.731 24.412C227.041 25.001 227.469 25.4763 228.017 25.838C228.575 26.1997 229.298 26.3805 230.187 26.3805C230.766 26.3805 231.313 26.2875 231.83 26.1015C232.347 25.9052 232.796 25.5952 233.179 25.1715C233.571 24.7478 233.876 24.1898 234.093 23.4975C234.32 22.8052 234.434 21.963 234.434 20.971L236.449 21.7305C236.449 23.2495 236.165 24.5928 235.597 25.7605C235.028 26.9178 234.212 27.822 233.148 28.473C232.083 29.124 230.797 29.4495 229.288 29.4495ZM234.822 29V24.164H234.434V12.26H237.705V29H234.822Z" fill="#F57E00"/>
</svg>
