<svg width="50" height="36" viewBox="0 0 50 36" fill="none" xmlns="http://www.w3.org/2000/svg">
<path d="M35.651 9.77762L50 13.4437L28.6108 4.45337L19.5587 0.648002C13.6238 -1.84338 5.76098 3.06836 1.98905 11.6216C-1.78288 20.1748 -0.0312272 29.1323 5.89809 31.6237L10.0981 33.3884C7.2608 29.4164 6.87185 22.7181 9.71199 16.2793C12.4822 9.99889 17.3706 5.6417 21.9344 4.68558C17.989 6.31372 14.0995 10.313 11.7183 15.7138C7.94635 24.267 9.3958 33.0934 14.9558 35.4291C15.7644 35.7705 16.6151 35.9536 17.4881 35.9918C17.7343 36.0027 17.9862 36.0027 18.238 35.9918C18.238 35.9918 18.2408 35.9918 18.2436 35.9918L44.0455 35.4291L35.651 34.0413L50 32.965L26.6213 31.8204C28.3562 30.1431 29.9343 28.0205 31.1963 25.5537L34.5737 26.2175L31.5125 24.9062L31.006 24.6877L30.5332 24.4855L31.6832 24.5484C31.7392 24.4254 31.7951 24.2998 31.8511 24.1714C33.1215 21.2894 33.8014 18.38 33.9273 15.6919L39.6104 16.6945L33.9469 14.4162L32.8304 13.9682L33.2949 13.96L33.9329 13.949C33.8909 13.023 33.7818 12.1324 33.6027 11.291L46.2533 14.0884L35.651 9.77762ZM10.683 3.33881C4.78162 8.16587 0.928544 17.4239 1.47139 24.9062C-0.887466 17.6288 3.40492 7.76703 9.58048 3.38252C10.8089 2.51381 12.2191 1.80628 13.6994 1.50305C12.5913 1.97838 11.5952 2.61215 10.683 3.34154V3.33881ZM25.253 14.3779C24.3688 15.1128 23.5713 14.7795 23.5126 13.6458L23.2887 9.53995C23.3643 9.5099 23.4454 9.47985 23.5209 9.45254C23.6245 9.41702 23.728 9.38424 23.8315 9.35692C23.8735 9.346 23.9183 9.33234 23.9603 9.32414C24.0218 9.30775 24.0834 9.29136 24.1477 9.2777C24.2177 9.26404 24.2876 9.25312 24.3604 9.23946C24.3968 9.23126 24.4331 9.2258 24.4695 9.22033C24.5535 9.20668 24.6374 9.19848 24.7214 9.19302C24.7493 9.19302 24.7801 9.18482 24.8081 9.18482C24.8837 9.17936 24.962 9.17936 25.0376 9.17936C25.0711 9.17936 25.1075 9.17936 25.1411 9.17936C25.2026 9.17936 25.2642 9.18755 25.3258 9.18755C25.3733 9.19302 25.4209 9.19575 25.4685 9.19848C25.5104 9.20394 25.5552 9.20941 25.5972 9.2176C25.6587 9.2258 25.7231 9.23672 25.7875 9.24765C25.8154 9.25585 25.8434 9.26131 25.8714 9.26951C25.9442 9.2859 26.0197 9.30502 26.0925 9.32687C26.1176 9.33507 26.1372 9.34326 26.1596 9.35146C26.2324 9.37605 26.3079 9.40336 26.3807 9.43341C26.4087 9.44434 26.4366 9.458 26.4646 9.47166C26.5262 9.49898 26.5877 9.52903 26.6493 9.55908C26.6913 9.58093 26.7304 9.60278 26.7724 9.62737C26.8144 9.65196 26.8592 9.67654 26.8983 9.70386C26.9543 9.73937 27.0075 9.77489 27.0606 9.81586C27.0858 9.83225 27.1054 9.84865 27.1278 9.86504C27.1977 9.91967 27.2649 9.97431 27.3293 10.0344C27.3348 10.0399 27.3404 10.0426 27.346 10.0481C27.8077 10.4715 28.1827 11.037 28.4597 11.7199L25.2558 14.3834L25.253 14.3779ZM28.9914 14.0884C29.0641 14.9789 29.0361 15.9514 28.899 16.9813C28.899 16.9923 28.899 17.0059 28.8934 17.0196C28.8738 17.1644 28.8515 17.3091 28.8291 17.4539C28.8207 17.5004 28.8123 17.5468 28.8039 17.5932C28.7843 17.708 28.7619 17.8227 28.7423 17.9402C28.7255 18.0221 28.7087 18.1068 28.692 18.1888C28.6724 18.2735 28.6556 18.3554 28.6388 18.4374C28.6136 18.5548 28.5828 18.6723 28.5548 18.7898C28.5409 18.8471 28.5297 18.9018 28.5129 18.9591C28.4793 19.093 28.4429 19.2269 28.4065 19.3607C28.3926 19.4072 28.3814 19.4509 28.3674 19.4973C28.331 19.6257 28.2918 19.7514 28.2554 19.877C28.2387 19.9344 28.2219 19.9918 28.2023 20.0464C28.1715 20.1502 28.1351 20.2567 28.1015 20.3605C28.0764 20.4425 28.0484 20.5217 28.0204 20.6009C27.9952 20.6774 27.9672 20.7539 27.9393 20.8304C27.9001 20.9369 27.8637 21.0462 27.8217 21.1528C27.8021 21.2074 27.7798 21.2593 27.763 21.3112C27.7126 21.4423 27.6622 21.5707 27.6091 21.6991C27.5923 21.7401 27.5727 21.7838 27.5559 21.8275C27.4971 21.9614 27.444 22.0952 27.3824 22.2318C27.3572 22.2837 27.3348 22.3356 27.3125 22.3875C27.2593 22.505 27.2061 22.6225 27.1502 22.7399C27.1138 22.8164 27.0774 22.8929 27.0382 22.9721C26.9963 23.0568 26.9571 23.1415 26.9151 23.2235C26.8592 23.3327 26.8032 23.442 26.7472 23.5513C26.722 23.5977 26.6969 23.6441 26.6717 23.6879C26.6213 23.7835 26.5681 23.8763 26.5178 23.9692L25.1551 21.0162C24.7801 20.1994 25.1551 18.6805 25.9861 17.6861L28.9802 14.0856L28.9914 14.0884ZM20.1436 22.7399C20.2947 22.4012 20.5633 22.1854 20.7452 22.2646C20.927 22.3411 20.9522 22.6771 20.8039 23.0186C20.6528 23.3573 20.3842 23.5731 20.2023 23.4939C20.0204 23.4174 19.9953 23.0814 20.1436 22.7399ZM19.7182 20.8304C19.4972 20.8632 19.3909 20.6091 19.4776 20.2595C19.5671 19.9125 19.8134 19.6066 20.0316 19.5738C20.2527 19.541 20.359 19.7951 20.2723 20.1447C20.1827 20.4917 19.9365 20.7976 19.7182 20.8304ZM20.5381 15.3942C20.3646 16.6644 19.4972 17.9784 18.6325 18.2707L15.4958 19.3361C15.5098 19.2979 15.521 19.2596 15.535 19.2214C15.5462 19.1859 15.5602 19.1531 15.5714 19.1176C15.7532 18.6013 15.9575 18.0822 16.1869 17.5632C16.5787 16.6699 17.0208 15.8312 17.4993 15.05C17.5077 15.0308 17.5217 15.0144 17.5301 14.9953C17.6084 14.8669 17.6896 14.7413 17.7707 14.6156C17.7959 14.5774 17.8183 14.5418 17.8435 14.5036C17.9134 14.3998 17.9834 14.2933 18.0533 14.1894C18.0897 14.1375 18.1261 14.0856 18.1597 14.0337C18.224 13.9463 18.2856 13.8534 18.3499 13.766C18.3919 13.7087 18.4339 13.6513 18.4759 13.5967C18.5402 13.5092 18.6046 13.4245 18.6717 13.3399C18.7109 13.288 18.7473 13.2388 18.7892 13.1869C18.8648 13.0913 18.9403 12.9984 19.0159 12.9055C19.0411 12.8755 19.0663 12.8454 19.0914 12.8154C19.7546 12.0259 20.4514 11.3429 21.1537 10.7938L20.5353 15.3942H20.5381ZM14.7123 22.4859L17.5357 22.6634C18.3164 22.7126 18.571 23.86 18.0981 25.1739L16.3828 29.9436C16.2961 29.8726 16.2121 29.8043 16.1338 29.7251C16.1254 29.7169 16.117 29.7087 16.1086 29.7005C16.0414 29.6349 15.9771 29.5666 15.9155 29.4984C15.8987 29.4792 15.8847 29.4601 15.8708 29.441C15.812 29.3754 15.756 29.3071 15.7029 29.2361C15.6861 29.2115 15.6693 29.1842 15.6525 29.1596C15.5769 29.0531 15.5014 28.9383 15.4342 28.8209C15.3979 28.7608 15.3615 28.7007 15.3279 28.6351C15.2999 28.5805 15.2691 28.5258 15.244 28.4685C15.216 28.4084 15.1852 28.3483 15.1572 28.2827C15.1236 28.209 15.0929 28.1297 15.0621 28.0505C15.0537 28.0287 15.0453 28.0068 15.0369 27.9822C14.4913 26.5344 14.3765 24.6112 14.7123 22.4831V22.4859ZM20.3954 26.1383C21.0474 24.9008 22.0771 24.2943 22.6507 24.8133L24.7214 26.6901C24.5982 26.8458 24.4695 27.0015 24.3408 27.149C24.3408 27.1545 24.3324 27.1572 24.3324 27.1627C24.2373 27.2747 24.1393 27.384 24.0414 27.4932C24.0162 27.5205 23.991 27.5506 23.9659 27.5779C23.8903 27.6599 23.8148 27.7418 23.7392 27.821C23.6888 27.8729 23.6385 27.9248 23.5881 27.974C23.5349 28.0259 23.4818 28.0778 23.4314 28.1297C23.3587 28.2035 23.2803 28.2745 23.2076 28.3483L23.1208 28.4248C23.0229 28.5149 22.9221 28.6051 22.8242 28.6897C22.8158 28.6952 22.813 28.7007 22.8046 28.7061C22.0071 29.3918 21.1901 29.9136 20.3926 30.2441C20.3814 30.2496 20.3702 30.2523 20.359 30.2578C20.2639 30.2988 20.1659 30.3316 20.0708 30.3671C20.0372 30.378 20.0037 30.3916 19.9701 30.3998C19.8945 30.4244 19.8218 30.449 19.7462 30.4709C19.6875 30.4873 19.6315 30.5009 19.5727 30.5146C19.5196 30.5282 19.4692 30.5392 19.4188 30.5528C19.3405 30.5692 19.2621 30.5829 19.1838 30.5965C19.153 30.602 19.1222 30.6075 19.0914 30.6129C18.9292 30.6375 18.7697 30.6484 18.6158 30.6539H18.529C18.3975 30.6539 18.2716 30.6484 18.1457 30.6402C18.1037 30.6348 18.0673 30.632 18.0281 30.6293L20.3954 26.1328V26.1383ZM23.6553 17.4403C23.8819 17.2108 24.1142 17.2381 24.1729 17.4976C24.2317 17.7599 24.0974 18.1587 23.8679 18.3909C23.6413 18.6204 23.409 18.5931 23.3503 18.3336C23.2915 18.074 23.4258 17.6752 23.6553 17.443V17.4403ZM23.104 21.7838C22.9026 22.0816 22.6395 22.1826 22.5164 22.0051C22.3905 21.8275 22.4492 21.4396 22.6479 21.1418C22.8466 20.8413 23.1096 20.743 23.2327 20.9206C23.3587 21.0981 23.3027 21.486 23.104 21.7838ZM22.508 20.224C22.1722 20.9807 21.5762 21.456 21.1705 21.2866C20.7676 21.1172 20.7116 20.366 21.0446 19.6093C21.3803 18.8526 21.9764 18.3773 22.3821 18.5466C22.785 18.716 22.841 19.4673 22.508 20.224ZM21.8756 17.7134C21.6406 17.85 21.4615 17.7052 21.4783 17.3829C21.4923 17.0633 21.6937 16.6918 21.9288 16.5524C22.1666 16.4158 22.3429 16.5606 22.3289 16.883C22.3149 17.2026 22.1107 17.5741 21.8756 17.7134ZM29.8504 23.4338C26.7976 30.3589 21.1173 34.6259 17.1663 32.965C16.1058 32.5197 15.2775 31.6947 14.6955 30.5883C14.7375 30.6457 14.7739 30.6976 14.8158 30.7522C14.8354 30.7768 14.8522 30.796 14.8718 30.8205C14.939 30.908 15.0117 30.9899 15.0789 31.0691C15.0873 31.0773 15.0957 31.0855 15.1041 31.0937C15.8036 31.8504 16.6682 32.3121 17.6644 32.4514C17.6868 32.4569 17.7064 32.4596 17.7231 32.4596C17.8071 32.4705 17.8938 32.4787 17.9778 32.4842C18.0281 32.4897 18.0757 32.4924 18.1261 32.4951C18.1848 32.4951 18.2436 32.4951 18.3024 32.4951C18.3779 32.4951 18.4535 32.4951 18.5262 32.4951C18.5682 32.4951 18.6158 32.4869 18.6577 32.4869C18.7473 32.4815 18.834 32.476 18.9236 32.4651C18.9347 32.4651 18.9487 32.4651 18.9571 32.4651C18.9907 32.4596 19.0243 32.4541 19.0579 32.4487C19.1474 32.4378 19.2314 32.4241 19.3209 32.4077C19.3881 32.3968 19.4524 32.3831 19.5196 32.3667C19.5811 32.3531 19.6455 32.3394 19.7098 32.323C19.8022 32.2984 19.8973 32.2738 19.9897 32.2465C20.0232 32.2383 20.0596 32.2247 20.0932 32.2165C20.2135 32.1782 20.3338 32.1373 20.4542 32.0936C20.4625 32.0936 20.4681 32.0881 20.4765 32.0854C21.4391 31.7248 22.4017 31.1429 23.3335 30.3862C23.3335 30.3862 23.3335 30.3862 23.3391 30.3807C23.4622 30.2796 23.5825 30.1786 23.7028 30.072C23.7308 30.0474 23.7588 30.0229 23.7868 29.9983C23.8791 29.9136 23.9742 29.8289 24.0666 29.7442C24.1253 29.6896 24.1785 29.6377 24.2373 29.583C24.2988 29.5229 24.3632 29.4601 24.4276 29.3973C24.5115 29.3126 24.5982 29.2279 24.6822 29.1405C24.7158 29.105 24.7493 29.0695 24.7829 29.034C24.892 28.9192 25.0012 28.799 25.1103 28.6788C25.1187 28.6706 25.1243 28.6597 25.1355 28.6515C26.0029 27.6763 26.8172 26.5426 27.5391 25.2778C27.5503 25.2586 27.5615 25.2422 27.5699 25.2231C27.6566 25.0701 27.7406 24.9199 27.8245 24.7642C27.8553 24.7068 27.8833 24.6522 27.9141 24.5975C27.9756 24.4773 28.04 24.3571 28.1015 24.2342C28.1519 24.1359 28.1995 24.0403 28.2443 23.9419C28.2862 23.8545 28.3282 23.7725 28.3674 23.6851C28.4317 23.5485 28.4933 23.4147 28.5548 23.2781C28.5744 23.2344 28.5968 23.1934 28.6136 23.1497C28.6192 23.136 28.6248 23.1224 28.6304 23.1087C28.6976 22.9557 28.7647 22.7973 28.8291 22.6443C28.8459 22.5979 28.8682 22.5542 28.885 22.5077C28.9438 22.3575 29.0054 22.21 29.0585 22.0597C29.0809 22.0023 29.1033 21.945 29.1229 21.8903C29.1704 21.7674 29.2124 21.6417 29.26 21.5106C29.288 21.4287 29.3187 21.3467 29.3467 21.2648C29.3803 21.1691 29.4083 21.0735 29.4391 20.9779C29.4754 20.8632 29.5146 20.7512 29.5454 20.6365C29.5678 20.5654 29.5874 20.4971 29.607 20.4288C29.6489 20.2895 29.6881 20.1502 29.7273 20.0136C29.7413 19.9562 29.7553 19.8934 29.7721 19.836C29.8112 19.6885 29.8476 19.5437 29.8812 19.399C29.8868 19.3826 29.8896 19.3634 29.8952 19.3471C29.9008 19.3225 29.9036 19.2979 29.9092 19.2733C29.9763 18.9837 30.0379 18.6969 30.091 18.4128C30.0966 18.3827 30.1022 18.3527 30.1078 18.3226C30.1554 18.0576 30.1974 17.7981 30.231 17.5413C30.2449 17.4403 30.2561 17.3392 30.2701 17.2436C30.2981 17.0196 30.3205 16.7956 30.3401 16.5743C30.3485 16.4432 30.3569 16.3148 30.3653 16.1864C30.3737 16.0689 30.3765 15.9542 30.3821 15.8394C30.3904 15.6182 30.3904 15.4024 30.3904 15.1865C30.3904 15.0855 30.3904 14.9844 30.3848 14.8888C30.3848 14.7522 30.3765 14.6183 30.3681 14.4845C30.3597 14.3397 30.3457 14.1949 30.3345 14.0529C30.3205 13.9135 30.3037 13.7715 30.2869 13.6376C30.2673 13.4983 30.2477 13.359 30.2254 13.2251C30.2142 13.1486 30.2002 13.0721 30.1862 12.9957C30.1442 12.7853 30.0966 12.5832 30.0463 12.3837C30.0351 12.3428 30.0239 12.2991 30.0127 12.2581C29.579 10.6709 28.7787 9.43341 27.6287 8.73681C27.5951 8.71495 27.5643 8.69856 27.5335 8.67944C27.3936 8.60022 27.2509 8.52646 27.1026 8.4609C27.0914 8.45544 27.0802 8.44997 27.069 8.44451C27.0522 8.43631 27.0298 8.43085 27.0131 8.42265C26.8787 8.36802 26.7444 8.32431 26.6073 8.28607C26.5598 8.27241 26.5094 8.25875 26.459 8.24509C26.2995 8.20411 26.1372 8.17133 25.9721 8.14948C25.9609 8.14948 25.947 8.14948 25.9302 8.14401C25.7595 8.12216 25.586 8.11396 25.4097 8.11123H25.3202C25.1299 8.11123 24.9396 8.12216 24.7493 8.14674H24.7242C24.685 8.15221 24.6486 8.15767 24.6094 8.16587C24.5311 8.17679 24.4527 8.18772 24.3688 8.20411C24.2932 8.21777 24.2121 8.23416 24.1337 8.25328C24.089 8.26148 24.0414 8.27241 23.9938 8.28333C23.3726 8.43631 22.7431 8.68491 22.1107 9.02911C24.2317 7.61131 26.4087 7.12506 28.2219 7.88996C32.1757 9.55088 32.9032 16.5115 29.8476 23.4365L29.8504 23.4338Z" fill="#F57E00"/>
</svg>
