<?xml version="1.0" encoding="utf-8"?><svg style="position: absolute; width: 0; height: 0; visibility: hidden;" xmlns="http://www.w3.org/2000/svg" xmlns:xlink="http://www.w3.org/1999/xlink"><symbol viewBox="0 0 15 15" id="close"><path fill-rule="evenodd" clip-rule="evenodd" d="M.346 12.984a1.181 1.181 0 001.67 1.67L7.5 9.17l5.483 5.484a1.18 1.18 0 101.67-1.67L9.17 7.5l5.483-5.484a1.18 1.18 0 10-1.67-1.67L7.5 5.83 2.016.346a1.18 1.18 0 10-1.67 1.67L5.83 7.5.346 12.984z"/></symbol><symbol fill="none" viewBox="0 0 11 6" id="ic-arrow-down" xmlns="http://www.w3.org/2000/svg"><path d="M9.775 1.056L5.4 4.945l-4.375-3.89" stroke="currentColor" stroke-width="1.5"/></symbol><symbol fill="none" viewBox="0 0 7 11" id="ic-arrow-next" xmlns="http://www.w3.org/2000/svg"><path d="M1.5 10l4-4.5-4-4.5" stroke="currentColor" stroke-width="1.6"/></symbol><symbol fill="none" viewBox="0 0 7 11" id="ic-arrow-prev" xmlns="http://www.w3.org/2000/svg"><path d="M5.5 10l-4-4.5 4-4.5" stroke="currentColor" stroke-width="1.6"/></symbol><symbol fill="none" viewBox="0 0 14 16" id="ic-cart" xmlns="http://www.w3.org/2000/svg"><path d="M3.025 1.25L1 3.95v9.45a1.35 1.35 0 001.35 1.35h9.45a1.35 1.35 0 001.35-1.35V3.95l-2.025-2.7h-8.1zM1 3.95h12.15m-3.375 2.7a2.7 2.7 0 11-5.4 0" stroke="currentColor" stroke-width="1.5" stroke-linecap="round" stroke-linejoin="round"/></symbol><symbol fill="none" viewBox="0 0 22 15" id="ic-cart-check" xmlns="http://www.w3.org/2000/svg"><path d="M20.335 1L7.5 13.833 1.668 8" stroke="currentColor" stroke-width="2" stroke-linecap="round" stroke-linejoin="round"/></symbol><symbol fill="none" viewBox="0 0 23 24" id="ic-clock" xmlns="http://www.w3.org/2000/svg"><path d="M11.443 21.697a9.469 9.469 0 100-18.938 9.469 9.469 0 100 18.938z" stroke="currentColor" stroke-width="1.5" stroke-linecap="round" stroke-linejoin="round"/><path d="M11.442 6.546v5.682l3.788 1.894" stroke="currentColor" stroke-width="1.5" stroke-linecap="round" stroke-linejoin="round"/></symbol><symbol fill="none" viewBox="0 0 18 16" id="ic-filter" xmlns="http://www.w3.org/2000/svg"><path d="M1.5 2.45c0-.42 0-.63.082-.79a.75.75 0 01.328-.328c.16-.082.37-.082.79-.082h12.6c.42 0 .63 0 .79.082a.75.75 0 01.328.328c.082.16.082.37.082.79v.502c0 .202 0 .302-.025.396a.751.751 0 01-.106.233c-.055.08-.13.146-.283.278l-4.797 4.157c-.152.132-.228.198-.283.278a.751.751 0 00-.106.233c-.025.094-.025.194-.025.396v3.92c0 .148 0 .22-.024.284a.375.375 0 01-.099.147c-.05.045-.118.072-.254.127l-2.55 1.02c-.276.11-.414.165-.524.142a.375.375 0 01-.237-.16c-.062-.094-.062-.242-.062-.54v-4.94c0-.202 0-.302-.025-.396a.75.75 0 00-.106-.233c-.055-.08-.13-.146-.283-.278L1.914 3.86c-.152-.132-.228-.198-.283-.278a.75.75 0 01-.106-.233C1.5 3.254 1.5 3.154 1.5 2.952V2.45z" stroke="currentColor" stroke-width="2" stroke-linecap="round" stroke-linejoin="round"/></symbol><symbol fill="none" viewBox="0 0 13 2" id="ic-minus" xmlns="http://www.w3.org/2000/svg"><path d="M1.834 1h9.333" stroke="currentColor" stroke-width="2" stroke-linecap="round" stroke-linejoin="round"/></symbol><symbol fill="none" viewBox="0 0 22 22" id="ic-phone" xmlns="http://www.w3.org/2000/svg"><path d="M7.38 7.853a14.603 14.603 0 002.847 4.01 14.605 14.605 0 004.01 2.846c.124.06.187.09.265.113.28.082.625.023.862-.147.067-.048.124-.105.239-.22.35-.349.524-.524.7-.638a2 2 0 012.18 0c.176.114.35.29.7.639l.195.195c.532.531.797.797.942 1.082a2 2 0 010 1.806c-.145.285-.41.55-.942 1.082l-.157.158c-.53.53-.795.794-1.155.997-.4.224-1.02.385-1.478.384-.413-.001-.695-.081-1.26-.241a19.039 19.039 0 01-8.283-4.874A19.038 19.038 0 012.17 6.761c-.16-.564-.24-.846-.241-1.26a3.377 3.377 0 01.384-1.478c.202-.36.467-.624.997-1.154l.157-.158c.532-.531.798-.797 1.083-.941a2 2 0 011.805 0c.286.144.551.41 1.083.941l.195.195c.35.35.524.525.638.7a2 2 0 010 2.18c-.114.177-.289.351-.638.701a2.02 2.02 0 00-.22.238 1.05 1.05 0 00-.147.862c.023.08.053.142.113.266z" stroke="currentColor" stroke-width="2" stroke-linecap="round" stroke-linejoin="round"/></symbol><symbol fill="none" viewBox="0 0 17 16" id="ic-plus" xmlns="http://www.w3.org/2000/svg"><path d="M8.5 3.334v9.333M3.834 8h9.333" stroke="currentColor" stroke-width="2" stroke-linecap="round" stroke-linejoin="round"/></symbol><symbol fill="none" viewBox="0 0 16 14" id="ic-tg" xmlns="http://www.w3.org/2000/svg"><path fill-rule="evenodd" clip-rule="evenodd" d="M13.833.322a1.125 1.125 0 011.546 1.22l-1.7 10.318c-.165.995-1.258 1.566-2.17 1.07a43.866 43.866 0 01-2.918-1.72c-.51-.334-2.072-1.403-1.88-2.164.165-.65 2.79-3.093 4.29-4.546.589-.57.32-.9-.375-.375-1.727 1.303-4.499 3.286-5.415 3.844-.809.492-1.23.576-1.734.492-.92-.153-1.772-.39-2.468-.679-.94-.39-.895-1.683-.001-2.06l12.825-5.4z" fill="currentColor"/></symbol><symbol fill="none" viewBox="0 0 16 16" id="ic-wa" xmlns="http://www.w3.org/2000/svg"><path d="M8.001.5a7.5 7.5 0 11-3.773 13.984L.504 15.5l1.014-3.726A7.5 7.5 0 018.001.5zM5.445 4.475l-.15.006a.75.75 0 00-.279.075.975.975 0 00-.22.171c-.09.085-.142.158-.196.23-.278.36-.427.803-.425 1.258.002.367.098.725.248 1.06.306.676.811 1.393 1.477 2.056.16.16.318.32.488.47a7.089 7.089 0 002.88 1.534l.426.065c.138.008.277-.002.417-.01a1.5 1.5 0 00.624-.173 3.73 3.73 0 00.288-.165s.032-.021.094-.067a1.72 1.72 0 00.247-.216.873.873 0 00.157-.226c.059-.123.117-.356.141-.55.018-.149.013-.23.011-.28-.003-.08-.07-.163-.143-.199l-.436-.195s-.652-.285-1.051-.466a.375.375 0 00-.133-.031.36.36 0 00-.283.095c-.004-.001-.054.042-.596.699a.262.262 0 01-.276.097 1.05 1.05 0 01-.144-.05l-.189-.08a4.5 4.5 0 01-1.18-.753c-.095-.082-.183-.172-.273-.26a4.725 4.725 0 01-.765-.95l-.044-.072a.75.75 0 01-.077-.153c-.028-.11.046-.199.046-.199s.182-.2.267-.308c.082-.104.152-.207.197-.28.089-.142.116-.288.07-.401a61.345 61.345 0 00-.651-1.531c-.044-.1-.176-.173-.295-.187a2.25 2.25 0 00-.424-.009l.152-.005z" fill="currentColor"/></symbol></svg>