<svg width="380" height="166" viewBox="0 0 380 166" fill="none" xmlns="http://www.w3.org/2000/svg">
<path d="M73.2267 162.68V133.353H0V114.651L52.5418 3.32H74.8859L22.3441 114.651H73.2267V69.8307H93.1373V114.651H109.729V133.353H93.1373V162.68H73.2267Z" fill="white"/>
<path d="M189.97 166C179.646 166 170.428 163.676 162.316 159.028C154.278 154.306 147.899 147.924 143.18 139.883C138.534 131.767 136.211 122.545 136.211 112.216V53.784C136.211 43.4551 138.534 34.2329 143.18 26.1173C147.899 18.0018 154.278 11.62 162.316 6.972C170.428 2.324 179.646 0 189.97 0C200.294 0 209.512 2.324 217.623 6.972C225.735 11.62 232.114 18.0018 236.76 26.1173C241.405 34.2329 243.728 43.4551 243.728 53.784V112.216C243.728 122.545 241.405 131.767 236.76 139.883C232.114 147.924 225.735 154.306 217.623 159.028C209.512 163.676 200.294 166 189.97 166ZM189.97 147.076C196.238 147.076 201.916 145.564 207.004 142.539C212.093 139.514 216.148 135.456 219.172 130.365C222.195 125.201 223.707 119.52 223.707 113.323V52.5667C223.707 46.2956 222.195 40.6147 219.172 35.524C216.148 30.4333 212.093 26.3756 207.004 23.3507C201.916 20.3258 196.238 18.8133 189.97 18.8133C183.775 18.8133 178.097 20.3258 172.935 23.3507C167.847 26.3756 163.791 30.4333 160.768 35.524C157.744 40.6147 156.232 46.2956 156.232 52.5667V113.323C156.232 119.52 157.744 125.201 160.768 130.365C163.791 135.456 167.847 139.514 172.935 142.539C178.097 145.564 183.775 147.076 189.97 147.076Z" fill="white"/>
<path d="M343.497 162.68V133.353H270.271V114.651L322.812 3.32H345.156L292.615 114.651H343.497V69.8307H363.408V114.651H380V133.353H363.408V162.68H343.497Z" fill="white"/>
</svg>
