<svg width="17" height="14" viewBox="0 0 17 14" fill="none" xmlns="http://www.w3.org/2000/svg">
<path fill-rule="evenodd" clip-rule="evenodd" d="M15.4299 14H1.53992C1.35725 14.001 1.17758 13.9533 1.01941 13.8619C0.86124 13.7706 0.730249 13.6387 0.639893 13.48C0.546449 13.3244 0.49707 13.1464 0.49707 12.965C0.49707 12.7835 0.546449 12.6055 0.639893 12.45L7.57983 0.52002C7.67216 0.361915 7.80435 0.230678 7.96313 0.139526C8.12192 0.0483743 8.30178 0.000488281 8.48486 0.000488281C8.66795 0.000488281 8.84781 0.0483743 9.00659 0.139526C9.16537 0.230678 9.29757 0.361915 9.38989 0.52002L16.3298 12.45C16.4233 12.6055 16.4727 12.7835 16.4727 12.965C16.4727 13.1464 16.4233 13.3244 16.3298 13.48C16.2395 13.6387 16.1085 13.7706 15.9503 13.8619C15.7921 13.9533 15.6126 14.001 15.4299 14ZM8.48987 0.719971C8.43343 0.720554 8.37811 0.735546 8.3291 0.76355C8.28009 0.791554 8.239 0.831674 8.20984 0.880005L1.2699 12.8101C1.24417 12.8577 1.23071 12.9108 1.23071 12.965C1.23071 13.0191 1.24417 13.0724 1.2699 13.12C1.29755 13.1667 1.33707 13.2052 1.38452 13.2316C1.43197 13.2579 1.48565 13.2712 1.53992 13.27H15.4299C15.4842 13.2712 15.5378 13.2579 15.5852 13.2316C15.6327 13.2052 15.6722 13.1667 15.6998 13.12C15.7281 13.0732 15.743 13.0196 15.743 12.965C15.743 12.9103 15.7281 12.8568 15.6998 12.8101L8.75989 0.880005C8.73184 0.832895 8.69243 0.793576 8.64526 0.765625C8.5981 0.737674 8.54466 0.721949 8.48987 0.719971ZM5.55994 11.98V7.04004H6.77991V10.9H7.86987V7.04004H9.09985V10.9H10.1898V7.04004H11.4199V11.98H5.55994Z" fill="currentColor"/>
</svg>
