<svg width="16" height="16" viewBox="0 0 16 16" fill="none" xmlns="http://www.w3.org/2000/svg">
<g clip-path="url(#clip0_7175_58443)">
<g clip-path="url(#clip1_7175_58443)">
<path fill-rule="evenodd" clip-rule="evenodd" d="M10.1345 0.325321C9.12345 0.024616 8.06302 -0.0689735 7.0156 0.0501693C5.96819 0.169312 4.95503 0.498879 4.03572 1.01916C3.1164 1.53944 2.30956 2.24004 1.6627 3.07976C1.01585 3.91948 0.542024 4.88134 0.269204 5.90864C-0.0036158 6.93594 -0.0699106 8.00777 0.0741455 9.06133C0.218202 10.1149 0.569717 11.1289 1.10803 12.0432C1.64634 12.9576 2.36055 13.7539 3.20859 14.3856C4.05662 15.0172 5.02138 15.4713 6.04598 15.7209C6.71494 15.9078 7.406 16.0017 8.10012 16C10.0177 15.9998 11.8697 15.296 13.3109 14.0197C14.7521 12.7434 15.6841 10.9817 15.9331 9.06328C16.1821 7.14483 15.7311 5.20055 14.6642 3.59284C13.5974 1.98513 11.9873 0.823745 10.1345 0.325321ZM15.2107 9.95126C14.7713 11.6168 13.7729 13.0772 12.3859 14.0832C10.9988 15.0891 9.30895 15.5785 7.60428 15.4679C5.89961 15.3573 4.28572 14.6536 3.03776 13.4767C1.7898 12.2997 0.984977 10.7225 0.760588 9.01389C0.536199 7.30526 0.906146 5.5709 1.80725 4.10665C2.70835 2.64241 4.08486 1.53888 5.70215 0.984129C7.31944 0.429374 9.07741 0.457689 10.6763 1.06441C12.2751 1.67113 13.6159 2.81864 14.47 4.31125C15.448 6.01794 15.7144 8.04648 15.2107 9.95126Z" fill="currentColor"/>
</g>
<path d="M8.10844 12C7.22024 12 6.47044 11.8311 5.85902 11.4933C5.24761 11.152 4.78492 10.6809 4.47095 10.08C4.15698 9.47911 4 8.78578 4 8C4 7.21422 4.15698 6.52089 4.47095 5.92C4.78492 5.31911 5.24761 4.84978 5.85902 4.512C6.47044 4.17067 7.22024 4 8.10844 4C9.14536 4 9.99225 4.22933 10.6491 4.688C11.306 5.14311 11.7563 5.75467 12 6.52267L11.0705 6.73067C10.8805 6.12267 10.5396 5.64089 10.048 5.28533C9.55642 4.92978 8.90989 4.752 8.10844 4.752C7.41028 4.752 6.82985 4.88889 6.36716 5.16267C5.90447 5.43644 5.55538 5.81867 5.31991 6.30933C5.08856 6.79644 4.96876 7.36 4.9605 8C4.95636 8.64 5.06997 9.20356 5.30132 9.69067C5.53679 10.1778 5.88794 10.56 6.35476 10.8373C6.82572 11.1111 7.41028 11.248 8.10844 11.248C8.90989 11.248 9.55642 11.0702 10.048 10.7147C10.5396 10.3556 10.8805 9.87378 11.0705 9.26933L12 9.47733C11.7563 10.2453 11.306 10.8587 10.6491 11.3173C9.99225 11.7724 9.14536 12 8.10844 12Z" fill="currentColor"/>
</g>
<defs>
<clipPath id="clip0_7175_58443">
<rect width="16" height="16" fill="white"/>
</clipPath>
<clipPath id="clip1_7175_58443">
<rect width="16" height="16" fill="white"/>
</clipPath>
</defs>
</svg>
