<svg width="16" height="16" viewBox="0 0 16 16" fill="none" xmlns="http://www.w3.org/2000/svg">
<g clip-path="url(#clip0_7297_4211)">
<path fill-rule="evenodd" clip-rule="evenodd" d="M15.501 7.48243H13.3363C13.2028 7.48243 13.0747 7.53552 12.9803 7.62995C12.8859 7.72438 12.8328 7.85245 12.8328 7.986C12.8328 8.11954 12.8859 8.24761 12.9803 8.34204C13.0747 8.43647 13.2028 8.48956 13.3363 8.48956H15.501C15.6345 8.48956 15.7626 8.43647 15.857 8.34204C15.9514 8.24761 16.0045 8.11954 16.0045 7.986C16.0045 7.85245 15.9514 7.72438 15.857 7.62995C15.7626 7.53552 15.6345 7.48243 15.501 7.48243ZM12.1316 4.59307L13.6563 3.04953C13.7033 3.00352 13.7406 2.9486 13.766 2.88799C13.7915 2.82739 13.8046 2.76233 13.8046 2.69659C13.8046 2.63085 13.7915 2.56579 13.766 2.50518C13.7406 2.44458 13.7033 2.38965 13.6563 2.34365C13.6121 2.29357 13.5578 2.25347 13.497 2.226C13.4361 2.19853 13.3701 2.18429 13.3034 2.18429C13.2366 2.18429 13.1706 2.19853 13.1098 2.226C13.0489 2.25347 12.9946 2.29357 12.9504 2.34365L11.4163 3.88719C11.3693 3.9332 11.332 3.98812 11.3066 4.04873C11.2811 4.10933 11.268 4.17439 11.268 4.24013C11.268 4.30587 11.2811 4.37093 11.3066 4.43154C11.332 4.49214 11.3693 4.54707 11.4163 4.59307C11.5133 4.68385 11.6411 4.73439 11.774 4.73439C11.9068 4.73439 12.0346 4.68385 12.1316 4.59307ZM12.1316 11.4072C12.0373 11.3156 11.9109 11.2646 11.7795 11.2652C11.648 11.2657 11.522 11.3177 11.4285 11.4101C11.3349 11.5024 11.2813 11.6277 11.279 11.7591C11.2767 11.8905 11.326 12.0176 11.4163 12.1131L12.9504 13.6378C12.9964 13.6847 13.0514 13.722 13.112 13.7475C13.1726 13.773 13.2376 13.7861 13.3034 13.7861C13.3691 13.7861 13.4342 13.773 13.4948 13.7475C13.5554 13.722 13.6103 13.6847 13.6563 13.6378C13.7053 13.593 13.7445 13.5385 13.7713 13.4777C13.7981 13.417 13.8119 13.3512 13.8119 13.2848C13.8119 13.2184 13.7981 13.1527 13.7713 13.0919C13.7445 13.0312 13.7053 12.9767 13.6563 12.9319L12.1316 11.4072ZM7.99041 3.18131C8.12637 3.18231 8.25724 3.12939 8.35426 3.03413C8.45129 2.93887 8.50661 2.809 8.5081 2.67304V0.498978C8.50712 0.432158 8.49287 0.366123 8.46628 0.304814C8.43969 0.243506 8.40123 0.188157 8.35311 0.141786C8.30499 0.0954149 8.2482 0.0590136 8.18595 0.0347087C8.1237 0.0104038 8.05722 -0.00137082 7.99041 0.000126891C7.9248 -0.000247683 7.8598 0.0124156 7.79911 0.0373512C7.73843 0.0622867 7.68329 0.0989527 7.63689 0.145347C7.5905 0.191742 7.55371 0.246883 7.52878 0.307572C7.50384 0.368261 7.49118 0.433367 7.49156 0.498978V2.67304C7.49055 2.80651 7.54248 2.93497 7.63597 3.03023C7.72947 3.12549 7.85694 3.17982 7.99041 3.18131ZM7.99041 12.8189C7.85841 12.8199 7.73206 12.8728 7.63873 12.9661C7.54539 13.0595 7.49254 13.1858 7.49156 13.3178V15.5013C7.49397 15.6328 7.54731 15.7583 7.64034 15.8513C7.73337 15.9444 7.85886 15.9977 7.99041 16.0001C8.12731 15.9989 8.25825 15.944 8.35507 15.8472C8.45188 15.7504 8.50687 15.6193 8.5081 15.4824V13.3178C8.50465 13.1833 8.44837 13.0556 8.3515 12.9622C8.25464 12.8689 8.12492 12.8174 7.99041 12.8189ZM10.7387 5.24243C10.1038 4.61586 9.27143 4.22859 8.38321 4.1465C7.495 4.0644 6.60575 4.29259 5.86679 4.79218C5.12782 5.29177 4.5848 6.03189 4.33002 6.88673C4.07524 7.74157 4.1245 8.65831 4.46938 9.48094C4.81426 10.3036 5.43345 10.9813 6.22168 11.3989C7.00991 11.8165 7.91849 11.948 8.7928 11.7713C9.6671 11.5945 10.4532 11.1203 11.0173 10.4294C11.5814 9.73838 11.8887 8.87328 11.8869 7.98128C11.8907 7.47084 11.7908 6.96491 11.5935 6.49415C11.3961 6.0234 11.1053 5.59757 10.7387 5.24243ZM10.0422 10.0331C9.49801 10.5699 8.76427 10.8709 7.99983 10.8709C7.23539 10.8709 6.50165 10.5699 5.95743 10.0331C5.6838 9.76694 5.46753 9.44764 5.32186 9.0948C5.17619 8.74195 5.10429 8.36297 5.11047 7.98128C5.10537 7.60394 5.17787 7.22956 5.32359 6.88145C5.46931 6.53334 5.68504 6.21892 5.95743 5.95773C6.22546 5.68921 6.54391 5.47625 6.89436 5.33089C7.24481 5.18554 7.62043 5.11065 7.99983 5.11065C8.37923 5.11065 8.75484 5.18554 9.1053 5.33089C9.45575 5.47625 9.77419 5.68921 10.0422 5.95773C10.3134 6.21939 10.5276 6.5341 10.6717 6.88225C10.8158 7.2304 10.8868 7.60455 10.8799 7.98128C10.8878 8.36236 10.8175 8.741 10.6734 9.09388C10.5294 9.44676 10.3146 9.76644 10.0422 10.0331ZM3.88689 4.59307C3.98285 4.68541 4.11138 4.73617 4.24454 4.73427C4.37353 4.72927 4.49671 4.67931 4.59277 4.59307C4.68356 4.498 4.7342 4.37159 4.7342 4.24013C4.7342 4.10867 4.68356 3.98227 4.59277 3.88719L3.04923 2.34365C2.95193 2.25731 2.82637 2.20969 2.69629 2.20969C2.56621 2.20969 2.44064 2.25731 2.34335 2.34365C2.29545 2.38911 2.25728 2.44381 2.23122 2.50449C2.20515 2.56517 2.19169 2.63055 2.19169 2.69659C2.19169 2.76263 2.20515 2.82801 2.23122 2.88868C2.25728 2.94936 2.29545 3.00407 2.34335 3.04953L3.88689 4.59307ZM3.86805 11.4072L2.34335 12.9319C2.29432 12.9786 2.25524 13.0349 2.22857 13.0972C2.2019 13.1595 2.18825 13.2265 2.18825 13.2942C2.18825 13.362 2.2019 13.429 2.22857 13.4913C2.25524 13.5536 2.29432 13.6098 2.34335 13.6566C2.43853 13.7472 2.5649 13.7977 2.69629 13.7977C2.82768 13.7977 2.95404 13.7472 3.04923 13.6566L4.59277 12.1131C4.68638 12.017 4.73792 11.8876 4.73616 11.7535C4.73439 11.6193 4.67945 11.4914 4.58335 11.3978C4.48725 11.3042 4.35789 11.2526 4.22375 11.2544C4.0896 11.2561 3.96165 11.3111 3.86805 11.4072ZM3.18101 7.98128C3.18138 7.91567 3.16872 7.85068 3.14378 7.78999C3.11885 7.7293 3.08218 7.67416 3.03579 7.62777C2.98939 7.58137 2.93425 7.54459 2.87356 7.51966C2.81287 7.49472 2.74777 7.48206 2.68216 7.48243H0.498679C0.365134 7.48243 0.237066 7.53552 0.142636 7.62995C0.0482055 7.72438 -0.00488281 7.85245 -0.00488281 7.986C-0.00488281 8.11954 0.0482055 8.24761 0.142636 8.34204C0.237066 8.43647 0.365134 8.48956 0.498679 8.48956H2.68216C2.7485 8.4897 2.8142 8.47656 2.8754 8.45095C2.9366 8.42534 2.99207 8.38778 3.03855 8.34043C3.08502 8.29308 3.12162 8.23689 3.14608 8.17522C3.17054 8.11355 3.18239 8.04761 3.18101 7.98128Z" fill="currentColor"/>
</g>
<defs>
<clipPath id="clip0_7297_4211">
<rect width="16" height="16" fill="white"/>
</clipPath>
</defs>
</svg>
