<svg width="14" height="16" viewBox="0 0 14 16" fill="none" xmlns="http://www.w3.org/2000/svg">
<path fill-rule="evenodd" clip-rule="evenodd" d="M13.7526 11.331L12.0235 10.3336L13.4827 9.45853C13.5978 9.3923 13.681 9.28641 13.7146 9.16345C13.7481 9.04049 13.7295 8.91006 13.6627 8.79979C13.6321 8.747 13.5899 8.70086 13.5392 8.66425C13.4885 8.62764 13.4303 8.60135 13.3682 8.58718C13.3061 8.57301 13.2415 8.57121 13.1786 8.5819C13.1157 8.59258 13.0559 8.61549 13.003 8.64921L11.0639 9.78785L7.96543 7.98116L11.0639 6.20273L13.003 7.34137C13.0679 7.39105 13.1492 7.41766 13.2329 7.41661C13.318 7.41201 13.4009 7.38933 13.4753 7.35022C13.5497 7.3111 13.6139 7.25658 13.6627 7.19079C13.7295 7.08052 13.7481 6.95009 13.7146 6.82713C13.681 6.70417 13.5978 6.59828 13.4827 6.53205L12.0235 5.65702L13.7526 4.65954C13.8636 4.58996 13.9433 4.48431 13.9765 4.36274C14.0097 4.24116 13.994 4.11227 13.9325 4.00092C13.9022 3.9466 13.8605 3.89877 13.8096 3.86044C13.7588 3.82211 13.7 3.79411 13.6371 3.7782C13.5742 3.76229 13.5085 3.75879 13.4441 3.76798C13.3797 3.77716 13.318 3.79876 13.2629 3.8315L11.5337 4.83839L11.5037 3.09763C11.5059 3.03643 11.4951 2.97539 11.4721 2.9181C11.4491 2.86082 11.4143 2.80832 11.3698 2.76373C11.3252 2.71913 11.2717 2.68335 11.2124 2.65828C11.153 2.63321 11.089 2.61944 11.024 2.61773C10.8932 2.62264 10.7696 2.6756 10.6799 2.76533C10.5902 2.85507 10.5415 2.97443 10.5442 3.09763L10.5641 5.39352L7.48568 7.17195V3.5587L9.42479 2.45773C9.54001 2.39171 9.62384 2.28657 9.65918 2.16402C9.69451 2.04148 9.67859 1.91091 9.61464 1.7991C9.58728 1.74469 9.54798 1.69633 9.49934 1.65725C9.4507 1.61817 9.39381 1.58925 9.33243 1.57236C9.27106 1.55547 9.20653 1.551 9.14319 1.55927C9.07985 1.56753 9.01912 1.58829 8.96494 1.62026L7.48568 2.45773V0.481737C7.48992 0.419972 7.48067 0.358054 7.45847 0.299793C7.43628 0.241533 7.40168 0.188159 7.35672 0.143005C7.31175 0.0978511 7.25733 0.0618202 7.197 0.0372157C7.13668 0.0126112 7.07168 0 7.00594 0C6.94019 0 6.87519 0.0126112 6.81487 0.0372157C6.75454 0.0618202 6.70012 0.0978511 6.65515 0.143005C6.61019 0.188159 6.57559 0.241533 6.5534 0.299793C6.5312 0.358054 6.52195 0.419972 6.52619 0.481737V2.47657L4.99691 1.62026C4.94264 1.58859 4.88192 1.56806 4.81865 1.55996C4.75538 1.55185 4.69094 1.55642 4.62966 1.57328C4.56837 1.59015 4.51154 1.61891 4.46287 1.65782C4.4142 1.69673 4.37481 1.7449 4.3472 1.7991C4.28326 1.91091 4.26734 2.04148 4.30267 2.16402C4.338 2.28657 4.42196 2.39171 4.53717 2.45773L6.52619 3.57753V7.15311L3.37771 5.33712L3.39772 3.09763C3.40192 3.03674 3.39297 2.97563 3.37136 2.9181C3.34976 2.86057 3.31597 2.80779 3.27205 2.76292C3.22812 2.71805 3.17489 2.68209 3.11575 2.65713C3.05661 2.63217 2.99278 2.61875 2.92798 2.61773H2.90797C2.77837 2.62582 2.65681 2.67974 2.5678 2.76878C2.47879 2.85782 2.42895 2.97537 2.42822 3.09763L2.41822 4.78187L0.718974 3.81277C0.665643 3.77973 0.605493 3.75779 0.542424 3.74845C0.479356 3.73911 0.414836 3.74252 0.353308 3.75856C0.29178 3.7746 0.234649 3.80283 0.185665 3.84137C0.136682 3.87992 0.0969458 3.92792 0.0692672 3.98208C0.00374642 4.09172 -0.0150998 4.22073 0.0164366 4.34298C0.047973 4.46523 0.127587 4.57168 0.239228 4.64082L1.94835 5.63818L0.459091 6.53205C0.401757 6.56458 0.35193 6.60759 0.312312 6.6584C0.272694 6.7092 0.244168 6.76681 0.228369 6.82805C0.21257 6.88929 0.209741 6.95291 0.220194 7.01516C0.230648 7.07741 0.254156 7.13712 0.289252 7.19079C0.32883 7.26032 0.387997 7.31818 0.460311 7.35803C0.532625 7.39788 0.615187 7.41816 0.698964 7.41661C0.788714 7.41763 0.876394 7.39126 0.948841 7.34137L2.90797 6.19331L6.04644 7.98116L2.90797 9.79727L0.948841 8.64921C0.896012 8.6152 0.836221 8.59205 0.773268 8.58121C0.710316 8.57037 0.645616 8.57218 0.58342 8.58638C0.521224 8.60057 0.462929 8.6269 0.412239 8.66368C0.361549 8.70046 0.319675 8.74679 0.289252 8.79979C0.228472 8.91042 0.212154 9.03805 0.243376 9.15909C0.274599 9.28012 0.351182 9.38647 0.459091 9.45853L1.94835 10.343L0.239228 11.3405C0.126486 11.411 0.0462508 11.5191 0.0147284 11.643C-0.0167939 11.7669 0.00268979 11.8975 0.0692672 12.0085C0.104642 12.0819 0.162733 12.1436 0.235812 12.1855C0.30889 12.2275 0.393614 12.2477 0.479101 12.2437C0.562612 12.2355 0.643859 12.2131 0.718974 12.1778L2.41822 11.2087L2.42822 12.8929C2.42812 13.0145 2.47799 13.1314 2.56743 13.2192C2.65688 13.3069 2.77892 13.3586 2.90797 13.3634H2.92798C2.99328 13.3613 3.05747 13.3469 3.11673 13.3209C3.17598 13.295 3.22908 13.2581 3.2729 13.2125C3.31672 13.1669 3.35028 13.1134 3.37173 13.0552C3.39317 12.9971 3.40204 12.9356 3.39772 12.8742L3.37771 10.6347L6.52619 8.83747V12.3943L4.53717 13.514C4.42196 13.58 4.338 13.6852 4.30267 13.8077C4.26734 13.9303 4.28326 14.061 4.3472 14.1728C4.38238 14.247 4.44 14.3097 4.51289 14.3532C4.58578 14.3967 4.67074 14.419 4.75704 14.4173C4.84137 14.4233 4.92552 14.4036 4.99691 14.3609L6.52619 13.4952V15.5183C6.52195 15.58 6.5312 15.6419 6.5534 15.7002C6.57559 15.7585 6.61019 15.8118 6.65515 15.857C6.70012 15.9021 6.75454 15.9382 6.81487 15.9628C6.87519 15.9874 6.94019 16 7.00594 16C7.07168 16 7.13668 15.9874 7.197 15.9628C7.25733 15.9382 7.31175 15.9021 7.35672 15.857C7.40168 15.8118 7.43628 15.7585 7.45847 15.7002C7.48067 15.6419 7.48992 15.58 7.48568 15.5183V13.5329L8.96494 14.3609C9.03315 14.4024 9.11373 14.4222 9.1948 14.4173C9.2829 14.4215 9.37029 14.4005 9.44529 14.3568C9.5203 14.3131 9.57939 14.2489 9.61464 14.1728C9.68088 14.0614 9.6981 13.93 9.66259 13.8068C9.62708 13.6836 9.54174 13.5785 9.42479 13.514L7.48568 12.4319V8.81863L10.5641 10.5971L10.5442 12.8742C10.5416 12.936 10.5518 12.9977 10.5745 13.0557C10.5972 13.1138 10.6317 13.1671 10.6763 13.2125C10.7208 13.2579 10.7745 13.2947 10.8341 13.3206C10.8938 13.3465 10.9583 13.361 11.024 13.3634C11.0885 13.3628 11.1522 13.3502 11.2114 13.3261C11.2706 13.302 11.3242 13.267 11.3689 13.2232C11.4136 13.1794 11.4485 13.1276 11.4716 13.0709C11.4948 13.0142 11.5057 12.9537 11.5037 12.8929L11.5337 11.1428L13.2629 12.1591C13.3429 12.1986 13.4324 12.218 13.5228 12.2155C13.6065 12.217 13.6891 12.1968 13.7614 12.1569C13.8337 12.1171 13.8929 12.0592 13.9325 11.9897C13.9988 11.8793 14.0171 11.7491 13.9836 11.6262C13.95 11.5034 13.8673 11.3976 13.7526 11.331Z" fill="currentColor"/>
</svg>
