<svg width="16" height="16" viewBox="0 0 16 16" fill="none" xmlns="http://www.w3.org/2000/svg">
<path fill-rule="evenodd" clip-rule="evenodd" d="M10.1345 0.325321C9.12345 0.0246161 8.06302 -0.0689735 7.0156 0.0501693C5.96819 0.169312 4.95503 0.498879 4.03572 1.01916C3.1164 1.53944 2.30956 2.24004 1.6627 3.07976C1.01585 3.91948 0.542024 4.88134 0.269204 5.90864C-0.00361578 6.93594 -0.0699105 8.00777 0.0741455 9.06133C0.218202 10.1149 0.569717 11.1289 1.10803 12.0432C1.64634 12.9576 2.36055 13.7539 3.20859 14.3856C4.05662 15.0172 5.02138 15.4713 6.04598 15.7209C6.71494 15.9078 7.406 16.0017 8.10012 16C10.0177 15.9998 11.8697 15.296 13.3109 14.0197C14.7521 12.7434 15.6841 10.9817 15.9331 9.06328C16.1821 7.14483 15.7311 5.20055 14.6642 3.59284C13.5974 1.98513 11.9873 0.823745 10.1345 0.325321ZM15.2107 9.95126C14.7713 11.6168 13.7729 13.0772 12.3859 14.0832C10.9988 15.0891 9.30894 15.5785 7.60428 15.4679C5.89961 15.3573 4.28572 14.6536 3.03776 13.4767C1.7898 12.2997 0.984977 10.7225 0.760588 9.01389C0.536199 7.30526 0.906146 5.5709 1.80725 4.10665C2.70835 2.64241 4.08486 1.53888 5.70215 0.984129C7.31944 0.429374 9.07741 0.457689 10.6763 1.06441C12.2751 1.67113 13.6159 2.81864 14.47 4.31125C15.448 6.01794 15.7144 8.04648 15.2107 9.95126ZM11.2308 11.9542C11.2308 11.9442 11.2307 11.9442 11.2406 11.9442C11.2444 11.9353 11.2515 11.9281 11.2604 11.9243C11.9311 11.3666 12.4468 10.6428 12.7567 9.82353C13.0666 9.00424 13.1601 8.11761 13.0282 7.25083C12.8417 6.0235 12.212 4.90919 11.2604 4.12198C11.2515 4.11815 11.2444 4.11099 11.2406 4.10203H11.2308C10.5506 3.54887 9.73853 3.18503 8.87565 3.04692C8.01277 2.9088 7.12905 3.00119 6.31252 3.31477H6.29287C5.80596 3.50225 5.35227 3.76815 4.94965 4.10203H4.93988C4.93608 4.11099 4.92899 4.11815 4.92011 4.12198C4.25004 4.6802 3.73495 5.40407 3.4251 6.22321C3.11526 7.04234 3.02122 7.92869 3.15229 8.79543V8.8054C3.28213 9.68365 3.64025 10.5115 4.19027 11.2046C4.74029 11.8978 5.46255 12.4317 6.28347 12.7517C7.10439 13.0717 7.99469 13.1664 8.86372 13.0263C9.73275 12.8863 10.5495 12.5163 11.2308 11.9542ZM9.12725 9.25377C9.12346 9.26273 9.11636 9.26989 9.10748 9.27372L8.88035 9.40314L8.42598 9.67221C8.39122 9.69368 8.36164 9.72288 8.33942 9.75736C8.31721 9.79184 8.30292 9.83093 8.29759 9.87171C8.12635 9.88997 7.95337 9.88324 7.78402 9.85176C7.74384 9.72625 7.65954 9.61987 7.54701 9.55276L7.05322 9.26374C6.93704 9.19512 6.79941 9.17368 6.66816 9.2039C6.59799 9.12937 6.53813 9.04556 6.49034 8.95477C6.44164 8.86465 6.39875 8.77143 6.36195 8.67573C6.40885 8.62873 6.44612 8.57283 6.47154 8.51127C6.49696 8.44971 6.51006 8.38383 6.51012 8.31713V7.7391C6.51199 7.67213 6.49973 7.60558 6.47419 7.54374C6.44865 7.4819 6.4104 7.42631 6.36195 7.3805C6.42237 7.2167 6.5055 7.06217 6.60885 6.92191C6.64611 6.94011 6.68721 6.94895 6.72856 6.94721C6.76992 6.94547 6.81024 6.9332 6.84586 6.91194L7.04333 6.80246V6.79249C7.05321 6.79249 7.06311 6.78251 7.07299 6.78251L7.29023 6.64311L7.75449 6.38401C7.78938 6.36033 7.81879 6.32935 7.84093 6.29327C7.86306 6.25719 7.87742 6.21663 7.88288 6.17455C8.05426 6.16146 8.22657 6.16816 8.39645 6.1945C8.43351 6.3242 8.51829 6.43477 8.63346 6.50347L9.12725 6.79249C9.24612 6.85335 9.38206 6.871 9.51231 6.84236C9.57156 6.92208 9.63087 7.01176 9.69013 7.09148C9.73789 7.18069 9.77755 7.2741 9.80863 7.37052C9.71874 7.47182 9.66943 7.60313 9.67035 7.7391V8.31713C9.67131 8.44977 9.72052 8.57729 9.80863 8.67573C9.74953 8.83819 9.66987 8.99247 9.57162 9.13432C9.53504 9.11378 9.49349 9.10385 9.45167 9.10561C9.40984 9.10737 9.36937 9.12075 9.33461 9.14429L9.1469 9.25377H9.12725ZM5.4731 11.6452L6.78667 9.72209L7.28046 10.0111L6.29287 12.1238L5.4731 11.6452ZM3.64608 7.53985L5.98666 7.7391V8.31713L3.64608 8.50641C3.60657 8.18544 3.60657 7.86081 3.64608 7.53985ZM10.7271 4.38107L9.38404 6.32417L8.90001 6.04512L9.89748 3.89281C10.1891 4.02791 10.467 4.19144 10.7271 4.38107ZM12.5344 8.50641L10.1938 8.31713V7.7391L12.5344 7.53985C12.5739 7.86081 12.5739 8.18544 12.5344 8.50641ZM11.132 11.3265L9.90737 9.55276C10.0759 9.34184 10.2124 9.1068 10.3123 8.85527L12.4455 9.03457C12.2522 9.91686 11.7934 10.7174 11.132 11.3265ZM11.9715 5.76608C12.1917 6.15545 12.3547 6.57503 12.4554 7.01168L10.3123 7.20096C10.2665 7.07362 10.2103 6.95043 10.1444 6.83238C10.0767 6.71487 9.99732 6.6046 9.90737 6.50347L11.1419 4.71972C11.4663 5.02685 11.7458 5.37923 11.9715 5.76608ZM8.08035 3.51402C8.52913 3.50962 8.97574 3.57684 9.40369 3.71327L8.48529 5.67631C8.22436 5.62824 7.95722 5.62486 7.69517 5.66633L6.77678 3.71327C7.19812 3.57759 7.63809 3.51037 8.08035 3.51402ZM5.84839 4.112C5.98665 4.03229 6.13485 3.96256 6.28299 3.89281L7.28046 6.04512L7.02368 6.1945L6.78667 6.32417L5.44344 4.38107C5.57379 4.2845 5.70897 4.19468 5.84839 4.112ZM5.03862 4.71972L6.2731 6.50347C6.1012 6.70836 5.96432 6.94068 5.86816 7.19098L3.73493 7.01168C3.9335 6.13374 4.38751 5.33561 5.03862 4.71972ZM4.20895 10.2802C3.98874 9.8908 3.82574 9.47122 3.72504 9.03457L5.86816 8.85527C5.914 8.98261 5.97019 9.1058 6.03609 9.22384C6.10857 9.3381 6.1877 9.44799 6.2731 9.55276L5.03862 11.3365C4.71392 11.0258 4.43452 10.6701 4.20895 10.2802ZM6.77678 12.333L7.69517 10.3799C7.82895 10.4035 7.96434 10.4167 8.10012 10.4196C8.22932 10.4162 8.3581 10.403 8.48529 10.3799L9.40369 12.343C8.54659 12.6038 7.63191 12.6003 6.77678 12.333ZM9.89748 12.1534L8.90001 10.0111L9.15679 9.86173L9.38404 9.72209L10.7271 11.6752C10.4691 11.8652 10.1908 12.0256 9.89748 12.1534ZM8.36679 7.00171C8.1914 6.95346 8.0066 6.95204 7.83044 6.99733C7.65427 7.04261 7.49272 7.13303 7.3616 7.26007C7.23047 7.38712 7.13426 7.5463 7.08227 7.72207C7.03028 7.89783 7.02425 8.08434 7.06491 8.26312C7.10558 8.4419 7.19147 8.60685 7.31422 8.74215C7.43697 8.87745 7.59243 8.97842 7.76534 9.03506C7.93824 9.0917 8.12274 9.10222 8.30085 9.06547C8.47895 9.02871 8.64452 8.94594 8.7815 8.82535C8.92522 8.69928 9.03236 8.53609 9.09133 8.35338C9.15029 8.17067 9.15888 7.97528 9.11628 7.78799C9.07368 7.60071 8.98151 7.42872 8.84949 7.29024C8.71747 7.15176 8.55061 7.05193 8.36679 7.00171ZM8.6038 8.16751C8.56805 8.2953 8.48636 8.40517 8.37475 8.47551C8.26313 8.54585 8.12955 8.57165 8.00006 8.54801C7.87056 8.52436 7.75442 8.45289 7.67432 8.34754C7.59421 8.2422 7.55589 8.11057 7.56678 7.97824C7.57766 7.84553 7.63745 7.72172 7.73435 7.63132C7.83126 7.54092 7.95826 7.49052 8.09023 7.48997C8.13689 7.49171 8.18324 7.49841 8.22851 7.50992C8.36064 7.55092 8.4731 7.63961 8.54449 7.75904C8.61333 7.88325 8.63449 8.02861 8.6038 8.16751Z" fill="currentColor"/>
</svg>
