<svg width="16" height="16" viewBox="0 0 16 16" fill="none" xmlns="http://www.w3.org/2000/svg">
<g clip-path="url(#clip0_7175_58409)">
<g clip-path="url(#clip1_7175_58409)">
<path d="M6.73601 7.51905C6.94368 7.63586 7.01592 7.90541 6.89854 8.11206C6.78115 8.31871 6.51027 8.39059 6.3026 8.27379L0.270996 4.81459C0.0633215 4.69778 -0.00891323 4.42823 0.108468 4.22158C0.22585 4.01493 0.49673 3.94305 0.704405 4.05985L6.73601 7.51905Z" fill="currentColor"/>
<path d="M4.07249 6.13522C4.1357 6.36883 4.00026 6.61142 3.7655 6.66533C3.53073 6.72822 3.28694 6.59345 3.23276 6.35984L2.59168 3.98782C2.52848 3.75421 2.66392 3.51161 2.89868 3.4577C3.13344 3.39481 3.37723 3.53857 3.43141 3.76319L4.07249 6.13522Z" fill="currentColor"/>
<path d="M3.53047 5.82989C3.76524 5.76699 4.00903 5.90177 4.0632 6.13537C4.12641 6.36898 3.99097 6.61158 3.75621 6.66549L1.37246 7.30342C1.1377 7.36631 0.893904 7.23154 0.839728 6.99793C0.776522 6.76432 0.911962 6.52173 1.14673 6.46782L3.53047 5.82989Z" fill="currentColor"/>
<path d="M6.35668 11.149C6.52824 10.9783 6.80815 10.9783 6.97971 11.149C7.15127 11.3197 7.15127 11.5983 6.97971 11.769L5.23704 13.5031C5.06549 13.6738 4.78558 13.6738 4.61402 13.5031C4.44246 13.3324 4.44246 13.0538 4.61402 12.8831L6.35668 11.149Z" fill="currentColor"/>
<path d="M7.10632 15.0932C7.10632 15.3358 6.90767 15.5245 6.67291 15.5245C6.42911 15.5245 6.2395 15.3268 6.2395 15.0932L6.23047 0.879031C6.23047 0.636438 6.42911 0.447754 6.66388 0.447754C6.90767 0.447754 7.09729 0.645423 7.09729 0.879031L7.10632 15.0932Z" fill="currentColor"/>
<path d="M6.97971 4.20363C7.15127 4.37435 7.15127 4.65288 6.97971 4.82359C6.80815 4.99431 6.52824 4.99431 6.35668 4.82359L4.61402 3.08052C4.44246 2.9098 4.44246 2.63127 4.61402 2.46055C4.78558 2.28984 5.06549 2.28984 5.23704 2.46055L6.97971 4.20363Z" fill="currentColor"/>
<path d="M6.32066 7.68973C6.52833 7.57293 6.79921 7.64481 6.91659 7.85146C7.03398 8.05812 6.96174 8.32767 6.75407 8.44447L0.704405 11.9216C0.49673 12.0384 0.22585 11.9666 0.108468 11.7599C-0.00891323 11.5533 0.0633215 11.2837 0.270996 11.1669L6.32066 7.68973Z" fill="currentColor"/>
<path d="M3.22374 9.61242C3.28694 9.37882 3.53073 9.24404 3.75647 9.30694C3.99123 9.36983 4.12667 9.61242 4.06346 9.83705L3.43141 12.2091C3.3682 12.4427 3.12441 12.5775 2.89868 12.5146C2.66392 12.4517 2.52848 12.2091 2.59168 11.9844L3.22374 9.61242Z" fill="currentColor"/>
<path d="M3.75621 9.30668C3.99097 9.36958 4.12641 9.61217 4.0632 9.8368C4 10.0704 3.75621 10.2052 3.53047 10.1423L1.14673 9.50435C0.911962 9.44146 0.776522 9.19886 0.839728 8.97424C0.902933 8.74063 1.14673 8.60586 1.37246 8.66875L3.75621 9.30668Z" fill="currentColor"/>
<path d="M8.41558 11.9665C8.17179 11.9665 7.97314 11.7688 7.97314 11.5263C7.97314 11.2837 8.17179 11.086 8.41558 11.086C9.27337 11.086 10.0589 10.7356 10.6187 10.1785C11.1786 9.62145 11.5307 8.83976 11.5307 7.98619C11.5307 7.12363 11.1786 6.35093 10.6187 5.79386C10.0499 5.22781 9.27337 4.88638 8.41558 4.88638C8.17179 4.88638 7.97314 4.68872 7.97314 4.44612C7.97314 4.20353 8.17179 4.00586 8.41558 4.00586C9.51716 4.00586 10.5194 4.45511 11.2418 5.1739C11.9641 5.8927 12.4156 6.89003 12.4156 7.98619C12.4156 9.08235 11.9641 10.0797 11.2418 10.7985C10.5194 11.5173 9.51716 11.9665 8.41558 11.9665Z" fill="currentColor"/>
<path d="M8.85802 4.44625C8.85802 4.68884 8.65937 4.88651 8.41558 4.88651C8.17179 4.88651 7.97314 4.68884 7.97314 4.44625V0.879227C7.97314 0.636634 8.17179 0.438965 8.41558 0.438965C8.65937 0.438965 8.85802 0.636634 8.85802 0.879227V4.44625Z" fill="currentColor"/>
<path d="M8.85802 15.0932C8.85802 15.3358 8.65937 15.5335 8.41558 15.5335C8.17179 15.5335 7.97314 15.3358 7.97314 15.0932V11.5262C7.97314 11.2836 8.17179 11.0859 8.41558 11.0859C8.65937 11.0859 8.85802 11.2836 8.85802 11.5262V15.0932Z" fill="currentColor"/>
<path d="M15.5579 7.55518C15.8016 7.55518 16.0003 7.75284 16.0003 7.99544C16.0003 8.23803 15.8016 8.4357 15.5579 8.4357H11.9732C11.7294 8.4357 11.5308 8.23803 11.5308 7.99544C11.5308 7.75284 11.7294 7.55518 11.9732 7.55518H15.5579Z" fill="currentColor"/>
<path d="M13.7789 12.7034C13.9505 12.8741 13.9505 13.1526 13.7789 13.3233C13.6074 13.4941 13.3275 13.4941 13.1559 13.3233L10.6277 10.8076C10.4561 10.6369 10.4561 10.3583 10.6277 10.1876C10.7992 10.0169 11.0792 10.0169 11.2507 10.1876L13.7789 12.7034Z" fill="currentColor"/>
<path d="M13.1559 2.65831C13.3275 2.48759 13.6074 2.48759 13.7789 2.65831C13.9505 2.82902 13.9505 3.10756 13.7789 3.27827L11.2507 5.79405C11.0792 5.96477 10.7992 5.96477 10.6277 5.79405C10.4561 5.62334 10.4561 5.34481 10.6277 5.17409L13.1559 2.65831Z" fill="currentColor"/>
</g>
</g>
<defs>
<clipPath id="clip0_7175_58409">
<rect width="16" height="16" fill="white"/>
</clipPath>
<clipPath id="clip1_7175_58409">
<rect width="16" height="15.0857" fill="white" transform="translate(0 0.457031)"/>
</clipPath>
</defs>
</svg>
