<svg width="17" height="14" viewBox="0 0 17 14" fill="none" xmlns="http://www.w3.org/2000/svg">
<g clip-path="url(#clip0_7297_2235)">
<path d="M15.4002 14H1.5002C1.1002 14 0.800195 13.8 0.600195 13.5C0.400195 13.2 0.400195 12.8 0.600195 12.5L7.6002 0.499993C7.9002 -7.48038e-06 8.5002 -0.100007 9.0002 0.0999925C9.2002 0.199993 9.30019 0.299993 9.4002 0.499993L16.3002 12.4C16.5002 12.7 16.5002 13.1 16.3002 13.4C16.1002 13.8 15.8002 14 15.4002 14ZM8.5002 0.699992C8.4002 0.699992 8.3002 0.799992 8.2002 0.899992L1.3002 12.8C1.2002 12.9 1.2002 13 1.3002 13.1C1.4002 13.2 1.5002 13.3 1.6002 13.3H15.5002C15.6002 13.3 15.7002 13.2 15.8002 13.1C15.9002 13 15.9002 12.9 15.8002 12.8L8.8002 0.899992C8.7002 0.799992 8.6002 0.699992 8.5002 0.699992ZM5.6002 12V6.99999H6.8002V10.9H7.9002V6.99999H9.1002V10.9H10.2002V6.99999H11.4002V12H5.6002Z" fill="currentColor"/>
<path d="M15.646 1.8376L0.577637 10.5376L1.32764 11.8366L16.396 3.1366L15.646 1.8376Z" fill="#FF0000"/>
</g>
<defs>
<clipPath id="clip0_7297_2235">
<rect width="16" height="14" fill="white" transform="translate(0.5)"/>
</clipPath>
</defs>
</svg>
