<svg width="167" height="33" viewBox="0 0 167 33" fill="none" xmlns="http://www.w3.org/2000/svg">
<g clip-path="url(#clip0_7153_161272)">
<mask id="mask0_7153_161272" style="mask-type:luminance" maskUnits="userSpaceOnUse" x="0" y="0" width="167" height="33">
<path d="M0 0H166.999V33H0V0Z" fill="white"/>
</mask>
<g mask="url(#mask0_7153_161272)">
<path fill-rule="evenodd" clip-rule="evenodd" d="M55.6667 13.475L47.271 13.4805L47.2692 10.9083H62.2353V6.325H41.0656V26.6741H55.6758C62.2572 26.6741 63.6973 23.0074 63.6973 20.0741C63.6964 15.8583 60.9596 13.475 55.6667 13.475ZM57.4918 20.0732C57.4918 21.3565 56.5792 22.0898 54.9366 22.0898H47.2701V18.0574H54.9366C56.5783 18.0574 57.4918 18.7917 57.4918 20.0732ZM104.396 22.2732V22.0908C104.396 19.7083 102.045 19.0933 100.49 18.7926C101.767 18.5185 103.849 17.6898 103.849 15.4898V15.1232C103.849 12.5565 100.564 11.0898 95.2712 11.0898H94.9062C89.6133 11.0898 85.963 12.7389 85.963 15.8528V16.0398H92.1694C92.3547 14.9398 93.2645 14.3898 95.0896 14.3898C96.9147 14.3898 97.8264 14.9398 97.8264 15.8565C97.8264 16.7732 97.2798 17.1398 96.0013 17.1398H92.8995V20.4398L96.0788 20.4417C97.6357 20.4417 98.373 20.7882 98.373 21.9065C98.373 23.0074 97.319 23.3741 95.2712 23.3741C93.4461 23.3741 91.986 23.0074 91.8044 21.3574L85.7814 21.3593V21.5765C85.7814 24.6565 88.5191 27.0398 94.7246 27.0398H95.4546C101.294 27.0398 104.396 25.2065 104.396 22.2732ZM146.192 21.9065H140.045L140.036 21.9248L140.025 21.9478L140.009 21.9835C139.819 22.3868 139.442 23.1889 136.816 23.1889C134.147 23.1889 132.858 22.0871 132.671 20.2537L146.19 20.2556V19.6964C146.19 15.3056 144.913 11.0889 136.7 11.0889H136.152C128.303 11.0889 126.662 15.1232 126.662 18.8714V19.2564C126.662 22.9139 128.522 27.0389 136.148 27.0389H136.892C145.076 27.0398 146.192 23.1908 146.192 21.9065ZM136.337 14.7565C139.258 14.7565 139.988 16.0389 139.988 17.3213L132.687 17.3232C132.868 15.8565 133.782 14.7565 136.337 14.7565ZM166.999 20.625H160.953C160.795 21.3583 160.247 22.825 157.691 22.825H157.326C155.136 22.825 153.859 21.1759 153.859 19.1583V18.9759C153.859 16.9593 154.954 15.1259 157.326 15.1259H157.691C160.063 15.1259 160.82 16.4093 160.977 17.3259H166.999C166.999 15.1259 165.444 11.0908 157.691 11.0926H157.326C149.387 11.0908 147.836 15.8602 147.836 18.7917V19.3408C147.836 22.2741 149.478 27.0398 157.326 27.0398H157.691C165.539 27.0417 166.999 22.825 166.999 20.625ZM124.838 26.675H118.997V21.1732H112.062V26.675H106.221V11.4583H112.062V16.9583H118.997V11.4593H124.838V26.675ZM84.1361 26.675H78.2947L78.2956 17.8759L71.5426 26.6759H65.5197V11.4593H71.3601V20.2593L78.1131 11.4593H84.1361V26.675Z" fill="white"/>
<path fill-rule="evenodd" clip-rule="evenodd" d="M32.8525 16.5C32.8525 25.6126 25.4981 33 16.4262 33C7.35439 33 0 25.6126 0 16.5C0 7.38742 7.35439 0 16.4262 0C25.4981 0 32.8525 7.38742 32.8525 16.5ZM21.7264 7.07392V25.9059H18.5388V9.53792H17.024C14.425 9.53792 12.8718 10.8222 12.8718 12.9727C12.8718 15.2772 13.8418 16.3423 15.8796 17.732L17.4985 18.8283L12.7714 25.9233H9.32554L13.5535 19.5965L13.5808 19.558L13.5425 19.5305C11.2474 17.8796 9.71885 16.1663 9.71885 13.1661C9.71885 9.35183 12.4429 7.07392 17.0075 7.07392H21.7264Z" fill="currentColor"/>
<path d="M21.7264 25.9059V7.07392H17.0075C12.4429 7.07392 9.71885 9.35183 9.71885 13.1661C9.71885 16.1663 11.2474 17.8796 13.5425 19.5305L13.5808 19.558L13.5535 19.5965L9.32554 25.9233H12.7714L17.4985 18.8283L15.8796 17.732C13.8418 16.3423 12.8718 15.2772 12.8718 12.9727C12.8718 10.8222 14.425 9.53792 17.024 9.53792H18.5388V25.9059H21.7264Z" class="svgbg" fill="white"/>
</g>
</g>
<defs>
<clipPath id="clip0_7153_161272">
<rect width="167" height="33" fill="white"/>
</clipPath>
</defs>
</svg>
