<svg width="103" height="33" viewBox="0 0 103 33" fill="none" xmlns="http://www.w3.org/2000/svg">
<g clip-path="url(#clip0_7153_161254)">
<path d="M98.2628 12.1544H102.989C102.391 7.60263 99.0316 5.21008 94.3625 5.21008C89.6368 5.21008 86.4768 7.69021 86.4768 11.9502C86.4768 16.7936 90.5477 17.8731 92.7114 18.3109C95.5013 18.8653 98.2343 18.9237 98.2343 21.3745C98.2343 23.0376 96.8678 23.8546 94.932 23.8546C92.5406 23.8546 90.9464 22.6292 90.5478 20.4118H85.8789C86.1635 25.1969 89.5515 27.7645 94.5335 27.7645C99.1454 27.7645 102.932 25.6054 102.932 20.9369C102.932 15.9183 98.576 15.0138 95.5298 14.5469C93.4515 14.226 91.1741 13.9342 91.1741 11.6875C91.1741 10.1119 92.3413 9.14912 94.3056 9.14912C96.5832 9.14912 97.9495 10.4622 98.2628 12.1544Z" fill="white"/>
<path d="M83.288 5.9397H78.8184V27.0934H83.288V5.9397Z" fill="white"/>
<path d="M65.3238 19.7115H71.16C70.2489 21.9875 68.1991 23.0669 65.8362 23.0669C61.6798 23.0669 59.744 19.7699 59.744 16.502C59.744 13.2048 61.5659 9.84947 65.8078 9.84947C68.3985 9.84947 70.3342 11.0749 71.0745 13.2632L75.8856 13.2633C75.0601 8.33232 70.8467 5.50208 65.8648 5.50208C59.7155 5.50208 55.1035 9.79108 55.1035 16.5604C55.1035 23.4171 60.1139 27.4728 65.8362 27.4728C71.473 27.4728 75.8856 23.7089 75.8856 17.815V16.0935H65.3238V19.7115Z" fill="white"/>
<path d="M44.8834 5.50195C39.759 5.50195 35.9727 8.79895 36.0011 14.2844H40.6131C40.5561 11.8918 42.0365 9.7035 44.6556 9.7035C46.9332 9.7035 48.2712 11.3375 48.2712 13.2047C48.2712 15.0721 46.9332 16.1226 44.4563 17.2606C41.0685 18.8069 38.6488 19.799 36.1719 20.6743V27.0934H53.424V22.775H41.5803C41.5803 22.775 41.6197 22.7624 41.6391 22.7564C43.6536 22.1308 45.167 21.4511 46.9617 20.6451C50.8049 18.8945 52.997 16.7061 52.997 12.9714C52.997 8.39044 49.6946 5.50195 44.8834 5.50195Z" fill="white"/>
<path d="M23.8736 19.6532C18.0659 19.6824 17.1264 23.2712 16.8133 26.3057L16.671 27.6478H15.5037L15.3614 26.3057C15.0483 23.2712 14.0804 19.6824 8.47195 19.6532C7.5325 17.669 7.13394 16.0642 7.13394 14.2552C7.13394 9.73277 10.7495 5.50188 16.1015 5.50188C21.4537 5.50188 25.0123 9.70343 25.0123 14.2845C25.0123 16.0642 24.8415 17.669 23.8736 19.6532ZM16.0447 0.0164795C7.21942 0.0164795 -0.0117188 7.42768 -0.0117188 16.5018C-0.0117188 25.6053 7.21942 33.0164 16.0447 33.0164C24.9553 33.0164 32.158 25.6053 32.158 16.5018C32.158 7.4277 24.9553 0.0164795 16.0447 0.0164795Z" fill="currentColor"/>
<path d="M23.8736 19.6532C18.0659 19.6824 17.1264 23.2712 16.8133 26.3057L16.671 27.6478H15.5037L15.3614 26.3057C15.0483 23.2712 14.0804 19.6824 8.47195 19.6532C7.5325 17.669 7.13394 16.0642 7.13394 14.2552C7.13394 9.73277 10.7495 5.50188 16.1015 5.50188C21.4537 5.50188 25.0123 9.70343 25.0123 14.2845C25.0123 16.0642 24.8415 17.669 23.8736 19.6532Z" class="svgbg" fill="white"/>
</g>
<defs>
<clipPath id="clip0_7153_161254">
<rect width="103" height="33" fill="white"/>
</clipPath>
</defs>
</svg>
